<svg version="1.1" xmlns="http://www.w3.org/2000/svg" xmlns:xlink="http://www.w3.org/1999/xlink" width="314.892578125" height="292"><defs/><g><text fill="#eeeeee" stroke="none" font-family="Arial" font-size="24px" font-style="normal" font-weight="normal" text-decoration="none" x="0" y="0">UNREGISTERED</text><text fill="#eeeeee" stroke="none" font-family="Arial" font-size="24px" font-style="normal" font-weight="normal" text-decoration="none" x="0" y="30">UNREGISTERED</text><text fill="#eeeeee" stroke="none" font-family="Arial" font-size="24px" font-style="normal" font-weight="normal" text-decoration="none" x="0" y="60">UNREGISTERED</text><text fill="#eeeeee" stroke="none" font-family="Arial" font-size="24px" font-style="normal" font-weight="normal" text-decoration="none" x="0" y="90">UNREGISTERED</text><text fill="#eeeeee" stroke="none" font-family="Arial" font-size="24px" font-style="normal" font-weight="normal" text-decoration="none" x="0" y="120">UNREGISTERED</text><text fill="#eeeeee" stroke="none" font-family="Arial" font-size="24px" font-style="normal" font-weight="normal" text-decoration="none" x="0" y="150">UNREGISTERED</text><text fill="#eeeeee" stroke="none" font-family="Arial" font-size="24px" font-style="normal" font-weight="normal" text-decoration="none" x="0" y="180">UNREGISTERED</text><text fill="#eeeeee" stroke="none" font-family="Arial" font-size="24px" font-style="normal" font-weight="normal" text-decoration="none" x="0" y="210">UNREGISTERED</text><text fill="#eeeeee" stroke="none" font-family="Arial" font-size="24px" font-style="normal" font-weight="normal" text-decoration="none" x="0" y="240">UNREGISTERED</text><text fill="#eeeeee" stroke="none" font-family="Arial" font-size="24px" font-style="normal" font-weight="normal" text-decoration="none" x="0" y="270">UNREGISTERED</text><text fill="#eeeeee" stroke="none" font-family="Arial" font-size="24px" font-style="normal" font-weight="normal" text-decoration="none" x="200" y="0">UNREGISTERED</text><text fill="#eeeeee" stroke="none" font-family="Arial" font-size="24px" font-style="normal" font-weight="normal" text-decoration="none" x="200" y="30">UNREGISTERED</text><text fill="#eeeeee" stroke="none" font-family="Arial" font-size="24px" font-style="normal" font-weight="normal" text-decoration="none" x="200" y="60">UNREGISTERED</text><text fill="#eeeeee" stroke="none" font-family="Arial" font-size="24px" font-style="normal" font-weight="normal" text-decoration="none" x="200" y="90">UNREGISTERED</text><text fill="#eeeeee" stroke="none" font-family="Arial" font-size="24px" font-style="normal" font-weight="normal" text-decoration="none" x="200" y="120">UNREGISTERED</text><text fill="#eeeeee" stroke="none" font-family="Arial" font-size="24px" font-style="normal" font-weight="normal" text-decoration="none" x="200" y="150">UNREGISTERED</text><text fill="#eeeeee" stroke="none" font-family="Arial" font-size="24px" font-style="normal" font-weight="normal" text-decoration="none" x="200" y="180">UNREGISTERED</text><text fill="#eeeeee" stroke="none" font-family="Arial" font-size="24px" font-style="normal" font-weight="normal" text-decoration="none" x="200" y="210">UNREGISTERED</text><text fill="#eeeeee" stroke="none" font-family="Arial" font-size="24px" font-style="normal" font-weight="normal" text-decoration="none" x="200" y="240">UNREGISTERED</text><text fill="#eeeeee" stroke="none" font-family="Arial" font-size="24px" font-style="normal" font-weight="normal" text-decoration="none" x="200" y="270">UNREGISTERED</text><g transform="translate(-117,-278) scale(1,1)"><rect fill="#C0C0C0" stroke="none" x="174" y="295" width="200.45166015625" height="72" opacity="0.2"/></g><g transform="translate(-117,-278) scale(1,1)"><rect fill="#ffffff" stroke="none" x="167" y="288" width="200.45166015625" height="72"/></g><g transform="translate(-117,-278) scale(1,1)"><path fill="none" stroke="#000000" d="M 167 288 L 367.45166015625 288 L 367.45166015625 360 L 167 360 L 167 288 Z Z" stroke-miterlimit="10"/></g><g transform="translate(-117,-278) scale(1,1)"><path fill="none" stroke="#000000" d="M 167 326 L 367.45166015625 326" stroke-miterlimit="10"/></g><g transform="translate(-117,-278) scale(1,1)"><path fill="none" stroke="#000000" d="M 167 336 L 367.45166015625 336" stroke-miterlimit="10"/></g><g transform="translate(-117,-278) scale(1,1)"><g><path fill="none" stroke="none"/><text fill="#000000" stroke="none" font-family="Arial" font-size="13px" font-style="normal" font-weight="normal" text-decoration="none" x="223.509521484375" y="305.5">«GameObject»</text></g></g><g transform="translate(-117,-278) scale(1,1)"><g><path fill="none" stroke="none"/><text fill="#000000" stroke="none" font-family="Arial" font-size="13px" font-style="normal" font-weight="bold" text-decoration="none" x="245.186767578125" y="320.5">Canvas</text></g></g><g transform="translate(-117,-278) scale(1,1)"><rect fill="#C0C0C0" stroke="none" x="134" y="485" width="118.09716796875" height="72" opacity="0.2"/></g><g transform="translate(-117,-278) scale(1,1)"><rect fill="#ffffff" stroke="none" x="127" y="478" width="118.09716796875" height="72"/></g><g transform="translate(-117,-278) scale(1,1)"><path fill="none" stroke="#000000" d="M 127 478 L 245.09716796875 478 L 245.09716796875 550 L 127 550 L 127 478 Z Z" stroke-miterlimit="10"/></g><g transform="translate(-117,-278) scale(1,1)"><path fill="none" stroke="#000000" d="M 127 531 L 245.09716796875 531" stroke-miterlimit="10"/></g><g transform="translate(-117,-278) scale(1,1)"><path fill="none" stroke="#000000" d="M 127 541 L 245.09716796875 541" stroke-miterlimit="10"/></g><g transform="translate(-117,-278) scale(1,1)"><g><path fill="none" stroke="none"/><text fill="#000000" stroke="none" font-family="Arial" font-size="13px" font-style="normal" font-weight="normal" text-decoration="none" x="162.20361328125" y="495.5">«Script»</text></g></g><g transform="translate(-117,-278) scale(1,1)"><g><path fill="none" stroke="none"/><text fill="#000000" stroke="none" font-family="Arial" font-size="13px" font-style="normal" font-weight="bold" text-decoration="none" x="133.0615234375" y="510.5">VRTK4_UICanvas</text></g></g><g transform="translate(-117,-278) scale(1,1)"><g><path fill="none" stroke="none"/><text fill="#000000" stroke="none" font-family="Arial" font-size="13px" font-style="normal" font-weight="normal" text-decoration="none" x="149.695556640625" y="525.5">(from VRTK)</text></g></g><g transform="translate(-117,-278) scale(1,1)"><rect fill="#C0C0C0" stroke="none" x="331" y="495" width="97.892578125" height="72" opacity="0.2"/></g><g transform="translate(-117,-278) scale(1,1)"><rect fill="#ffffff" stroke="none" x="324" y="488" width="97.892578125" height="72"/></g><g transform="translate(-117,-278) scale(1,1)"><path fill="none" stroke="#000000" d="M 324 488 L 421.892578125 488 L 421.892578125 560 L 324 560 L 324 488 Z Z" stroke-miterlimit="10"/></g><g transform="translate(-117,-278) scale(1,1)"><path fill="none" stroke="#000000" d="M 324 541 L 421.892578125 541" stroke-miterlimit="10"/></g><g transform="translate(-117,-278) scale(1,1)"><path fill="none" stroke="#000000" d="M 324 551 L 421.892578125 551" stroke-miterlimit="10"/></g><g transform="translate(-117,-278) scale(1,1)"><g><path fill="none" stroke="none"/><text fill="#000000" stroke="none" font-family="Arial" font-size="13px" font-style="normal" font-weight="normal" text-decoration="none" x="332.11181640625" y="505.5">«Component»</text></g></g><g transform="translate(-117,-278) scale(1,1)"><g><path fill="none" stroke="none"/><text fill="#000000" stroke="none" font-family="Arial" font-size="13px" font-style="normal" font-weight="bold" text-decoration="none" x="330.67724609375" y="520.5">Canvas Scaler</text></g></g><g transform="translate(-117,-278) scale(1,1)"><g><path fill="none" stroke="none"/><text fill="#000000" stroke="none" font-family="Arial" font-size="13px" font-style="normal" font-weight="normal" text-decoration="none" x="339.002197265625" y="535.5">(from Unity)</text></g></g><g transform="translate(-117,-278) scale(1,1)"><path fill="none" stroke="#000000" d="M 353 487 L 286 361" stroke-miterlimit="10"/></g><g transform="translate(-117,-278) scale(1,1)"><path fill="#000000" stroke="none" d="M 294.4880700542708 367.99661823696215 L 286 361 L 287.0546156938319 371.94932809529075 L 296.3289286235878 380.42455233689645"/></g><g transform="translate(-117,-278) scale(1,1)"><path fill="none" stroke="#000000" d="M 294.4880700542708 367.99661823696215 L 286 361 L 287.0546156938319 371.94932809529075 L 296.3289286235878 380.42455233689645 L 294.4880700542708 367.99661823696215" stroke-miterlimit="10"/></g><g transform="translate(-117,-278) scale(1,1)"><path fill="none" stroke="#000000" d="M 202 477 L 251 361" stroke-miterlimit="10"/></g><g transform="translate(-117,-278) scale(1,1)"><path fill="#000000" stroke="none" d="M 250.92323176079324 371.99973211662217 L 251 361 L 243.16773148657816 368.72370182837614 L 242.43932030712892 381.26609886475603"/></g><g transform="translate(-117,-278) scale(1,1)"><path fill="none" stroke="#000000" d="M 250.92323176079324 371.99973211662217 L 251 361 L 243.16773148657816 368.72370182837614 L 242.43932030712892 381.26609886475603 L 250.92323176079324 371.99973211662217" stroke-miterlimit="10"/></g></g></svg>