<svg version="1.1" xmlns="http://www.w3.org/2000/svg" xmlns:xlink="http://www.w3.org/1999/xlink" width="490.45166015625" height="385"><defs/><g><text fill="#eeeeee" stroke="none" font-family="Arial" font-size="24px" font-style="normal" font-weight="normal" text-decoration="none" x="0" y="0">UNREGISTERED</text><text fill="#eeeeee" stroke="none" font-family="Arial" font-size="24px" font-style="normal" font-weight="normal" text-decoration="none" x="0" y="30">UNREGISTERED</text><text fill="#eeeeee" stroke="none" font-family="Arial" font-size="24px" font-style="normal" font-weight="normal" text-decoration="none" x="0" y="60">UNREGISTERED</text><text fill="#eeeeee" stroke="none" font-family="Arial" font-size="24px" font-style="normal" font-weight="normal" text-decoration="none" x="0" y="90">UNREGISTERED</text><text fill="#eeeeee" stroke="none" font-family="Arial" font-size="24px" font-style="normal" font-weight="normal" text-decoration="none" x="0" y="120">UNREGISTERED</text><text fill="#eeeeee" stroke="none" font-family="Arial" font-size="24px" font-style="normal" font-weight="normal" text-decoration="none" x="0" y="150">UNREGISTERED</text><text fill="#eeeeee" stroke="none" font-family="Arial" font-size="24px" font-style="normal" font-weight="normal" text-decoration="none" x="0" y="180">UNREGISTERED</text><text fill="#eeeeee" stroke="none" font-family="Arial" font-size="24px" font-style="normal" font-weight="normal" text-decoration="none" x="0" y="210">UNREGISTERED</text><text fill="#eeeeee" stroke="none" font-family="Arial" font-size="24px" font-style="normal" font-weight="normal" text-decoration="none" x="0" y="240">UNREGISTERED</text><text fill="#eeeeee" stroke="none" font-family="Arial" font-size="24px" font-style="normal" font-weight="normal" text-decoration="none" x="0" y="270">UNREGISTERED</text><text fill="#eeeeee" stroke="none" font-family="Arial" font-size="24px" font-style="normal" font-weight="normal" text-decoration="none" x="0" y="300">UNREGISTERED</text><text fill="#eeeeee" stroke="none" font-family="Arial" font-size="24px" font-style="normal" font-weight="normal" text-decoration="none" x="0" y="330">UNREGISTERED</text><text fill="#eeeeee" stroke="none" font-family="Arial" font-size="24px" font-style="normal" font-weight="normal" text-decoration="none" x="0" y="360">UNREGISTERED</text><text fill="#eeeeee" stroke="none" font-family="Arial" font-size="24px" font-style="normal" font-weight="normal" text-decoration="none" x="200" y="0">UNREGISTERED</text><text fill="#eeeeee" stroke="none" font-family="Arial" font-size="24px" font-style="normal" font-weight="normal" text-decoration="none" x="200" y="30">UNREGISTERED</text><text fill="#eeeeee" stroke="none" font-family="Arial" font-size="24px" font-style="normal" font-weight="normal" text-decoration="none" x="200" y="60">UNREGISTERED</text><text fill="#eeeeee" stroke="none" font-family="Arial" font-size="24px" font-style="normal" font-weight="normal" text-decoration="none" x="200" y="90">UNREGISTERED</text><text fill="#eeeeee" stroke="none" font-family="Arial" font-size="24px" font-style="normal" font-weight="normal" text-decoration="none" x="200" y="120">UNREGISTERED</text><text fill="#eeeeee" stroke="none" font-family="Arial" font-size="24px" font-style="normal" font-weight="normal" text-decoration="none" x="200" y="150">UNREGISTERED</text><text fill="#eeeeee" stroke="none" font-family="Arial" font-size="24px" font-style="normal" font-weight="normal" text-decoration="none" x="200" y="180">UNREGISTERED</text><text fill="#eeeeee" stroke="none" font-family="Arial" font-size="24px" font-style="normal" font-weight="normal" text-decoration="none" x="200" y="210">UNREGISTERED</text><text fill="#eeeeee" stroke="none" font-family="Arial" font-size="24px" font-style="normal" font-weight="normal" text-decoration="none" x="200" y="240">UNREGISTERED</text><text fill="#eeeeee" stroke="none" font-family="Arial" font-size="24px" font-style="normal" font-weight="normal" text-decoration="none" x="200" y="270">UNREGISTERED</text><text fill="#eeeeee" stroke="none" font-family="Arial" font-size="24px" font-style="normal" font-weight="normal" text-decoration="none" x="200" y="300">UNREGISTERED</text><text fill="#eeeeee" stroke="none" font-family="Arial" font-size="24px" font-style="normal" font-weight="normal" text-decoration="none" x="200" y="330">UNREGISTERED</text><text fill="#eeeeee" stroke="none" font-family="Arial" font-size="24px" font-style="normal" font-weight="normal" text-decoration="none" x="200" y="360">UNREGISTERED</text><text fill="#eeeeee" stroke="none" font-family="Arial" font-size="24px" font-style="normal" font-weight="normal" text-decoration="none" x="400" y="0">UNREGISTERED</text><text fill="#eeeeee" stroke="none" font-family="Arial" font-size="24px" font-style="normal" font-weight="normal" text-decoration="none" x="400" y="30">UNREGISTERED</text><text fill="#eeeeee" stroke="none" font-family="Arial" font-size="24px" font-style="normal" font-weight="normal" text-decoration="none" x="400" y="60">UNREGISTERED</text><text fill="#eeeeee" stroke="none" font-family="Arial" font-size="24px" font-style="normal" font-weight="normal" text-decoration="none" x="400" y="90">UNREGISTERED</text><text fill="#eeeeee" stroke="none" font-family="Arial" font-size="24px" font-style="normal" font-weight="normal" text-decoration="none" x="400" y="120">UNREGISTERED</text><text fill="#eeeeee" stroke="none" font-family="Arial" font-size="24px" font-style="normal" font-weight="normal" text-decoration="none" x="400" y="150">UNREGISTERED</text><text fill="#eeeeee" stroke="none" font-family="Arial" font-size="24px" font-style="normal" font-weight="normal" text-decoration="none" x="400" y="180">UNREGISTERED</text><text fill="#eeeeee" stroke="none" font-family="Arial" font-size="24px" font-style="normal" font-weight="normal" text-decoration="none" x="400" y="210">UNREGISTERED</text><text fill="#eeeeee" stroke="none" font-family="Arial" font-size="24px" font-style="normal" font-weight="normal" text-decoration="none" x="400" y="240">UNREGISTERED</text><text fill="#eeeeee" stroke="none" font-family="Arial" font-size="24px" font-style="normal" font-weight="normal" text-decoration="none" x="400" y="270">UNREGISTERED</text><text fill="#eeeeee" stroke="none" font-family="Arial" font-size="24px" font-style="normal" font-weight="normal" text-decoration="none" x="400" y="300">UNREGISTERED</text><text fill="#eeeeee" stroke="none" font-family="Arial" font-size="24px" font-style="normal" font-weight="normal" text-decoration="none" x="400" y="330">UNREGISTERED</text><text fill="#eeeeee" stroke="none" font-family="Arial" font-size="24px" font-style="normal" font-weight="normal" text-decoration="none" x="400" y="360">UNREGISTERED</text><g transform="translate(-14,-65) scale(1,1)"><rect fill="#C0C0C0" stroke="none" x="35" y="82" width="168.6943359375" height="72" opacity="0.2"/></g><g transform="translate(-14,-65) scale(1,1)"><rect fill="#ffffff" stroke="none" x="28" y="75" width="168.6943359375" height="72"/></g><g transform="translate(-14,-65) scale(1,1)"><path fill="none" stroke="#000000" d="M 28 75 L 196.6943359375 75 L 196.6943359375 147 L 28 147 L 28 75 Z Z" stroke-miterlimit="10"/></g><g transform="translate(-14,-65) scale(1,1)"><path fill="none" stroke="#000000" d="M 28 113 L 196.6943359375 113" stroke-miterlimit="10"/></g><g transform="translate(-14,-65) scale(1,1)"><path fill="none" stroke="#000000" d="M 28 123 L 196.6943359375 123" stroke-miterlimit="10"/></g><g transform="translate(-14,-65) scale(1,1)"><g><path fill="none" stroke="none"/><text fill="#000000" stroke="none" font-family="Arial" font-size="13px" font-style="normal" font-weight="normal" text-decoration="none" x="68.630859375" y="92.5">«GameObject»</text></g></g><g transform="translate(-14,-65) scale(1,1)"><g><path fill="none" stroke="none"/><text fill="#000000" stroke="none" font-family="Arial" font-size="13px" font-style="normal" font-weight="bold" text-decoration="none" x="37.092529296875" y="107.5">CameraRigs.TrackedAlias</text></g></g><g transform="translate(-14,-65) scale(1,1)"><rect fill="#C0C0C0" stroke="none" x="31" y="223" width="134.01708984375" height="72" opacity="0.2"/></g><g transform="translate(-14,-65) scale(1,1)"><rect fill="#ffffff" stroke="none" x="24" y="216" width="134.01708984375" height="72"/></g><g transform="translate(-14,-65) scale(1,1)"><path fill="none" stroke="#000000" d="M 24 216 L 158.01708984375 216 L 158.01708984375 288 L 24 288 L 24 216 Z Z" stroke-miterlimit="10"/></g><g transform="translate(-14,-65) scale(1,1)"><path fill="none" stroke="#000000" d="M 24 254 L 158.01708984375 254" stroke-miterlimit="10"/></g><g transform="translate(-14,-65) scale(1,1)"><path fill="none" stroke="#000000" d="M 24 264 L 158.01708984375 264" stroke-miterlimit="10"/></g><g transform="translate(-14,-65) scale(1,1)"><g><path fill="none" stroke="none"/><text fill="#000000" stroke="none" font-family="Arial" font-size="13px" font-style="normal" font-weight="normal" text-decoration="none" x="67.16357421875" y="233.5">«Script»</text></g></g><g transform="translate(-14,-65) scale(1,1)"><g><path fill="none" stroke="none"/><text fill="#000000" stroke="none" font-family="Arial" font-size="13px" font-style="normal" font-weight="bold" text-decoration="none" x="32.000732421875" y="248.5">TrackedAliasFacade</text></g></g><g transform="translate(-14,-65) scale(1,1)"><path fill="none" stroke="#000000" d="M 97 215 L 106 148" stroke-miterlimit="10"/></g><g transform="translate(-14,-65) scale(1,1)"><path fill="#000000" stroke="none" d="M 108.81906230395778 158.63263315112508 L 106 148 L 100.47497106868649 157.51178507474535 L 103.07108282829864 169.80416116711012"/></g><g transform="translate(-14,-65) scale(1,1)"><path fill="none" stroke="#000000" d="M 108.81906230395778 158.63263315112508 L 106 148 L 100.47497106868649 157.51178507474535 L 103.07108282829864 169.80416116711012 L 108.81906230395778 158.63263315112508" stroke-miterlimit="10"/></g><g transform="translate(-14,-65) scale(1,1)"><rect fill="#C0C0C0" stroke="none" x="143" y="375" width="248.1162109375" height="72" opacity="0.2"/></g><g transform="translate(-14,-65) scale(1,1)"><rect fill="#ffffff" stroke="none" x="136" y="368" width="248.1162109375" height="72"/></g><g transform="translate(-14,-65) scale(1,1)"><path fill="none" stroke="#000000" d="M 136 368 L 384.1162109375 368 L 384.1162109375 440 L 136 440 L 136 368 Z Z" stroke-miterlimit="10"/></g><g transform="translate(-14,-65) scale(1,1)"><path fill="none" stroke="#000000" d="M 136 406 L 384.1162109375 406" stroke-miterlimit="10"/></g><g transform="translate(-14,-65) scale(1,1)"><path fill="none" stroke="#000000" d="M 136 416 L 384.1162109375 416" stroke-miterlimit="10"/></g><g transform="translate(-14,-65) scale(1,1)"><g><path fill="none" stroke="none"/><text fill="#000000" stroke="none" font-family="Arial" font-size="13px" font-style="normal" font-weight="normal" text-decoration="none" x="216.341796875" y="385.5">«GameObject»</text></g></g><g transform="translate(-14,-65) scale(1,1)"><g><path fill="none" stroke="none"/><text fill="#000000" stroke="none" font-family="Arial" font-size="13px" font-style="normal" font-weight="bold" text-decoration="none" x="147.720458984375" y="400.5">CameraRigs.UnityXRPluginFramework</text></g></g><g transform="translate(-14,-65) scale(1,1)"><rect fill="#C0C0C0" stroke="none" x="301" y="185" width="200.45166015625" height="72" opacity="0.2"/></g><g transform="translate(-14,-65) scale(1,1)"><rect fill="#ffffff" stroke="none" x="294" y="178" width="200.45166015625" height="72"/></g><g transform="translate(-14,-65) scale(1,1)"><path fill="none" stroke="#000000" d="M 294 178 L 494.45166015625 178 L 494.45166015625 250 L 294 250 L 294 178 Z Z" stroke-miterlimit="10"/></g><g transform="translate(-14,-65) scale(1,1)"><path fill="none" stroke="#000000" d="M 294 216 L 494.45166015625 216" stroke-miterlimit="10"/></g><g transform="translate(-14,-65) scale(1,1)"><path fill="none" stroke="#000000" d="M 294 226 L 494.45166015625 226" stroke-miterlimit="10"/></g><g transform="translate(-14,-65) scale(1,1)"><g><path fill="none" stroke="none"/><text fill="#000000" stroke="none" font-family="Arial" font-size="13px" font-style="normal" font-weight="normal" text-decoration="none" x="350.509521484375" y="195.5">«GameObject»</text></g></g><g transform="translate(-14,-65) scale(1,1)"><g><path fill="none" stroke="none"/><text fill="#000000" stroke="none" font-family="Arial" font-size="13px" font-style="normal" font-weight="bold" text-decoration="none" x="347.989501953125" y="210.5">VRMainCamera</text></g></g><g transform="translate(-14,-65) scale(1,1)"><path fill="none" stroke="#000000" d="M 198 142 L 293 177" stroke-miterlimit="10"/></g><g transform="translate(-14,-65) scale(1,1)"><path fill="#FFFFFF" stroke="none" d="M 282.00867115256443 177.4366808531763 L 293 177 L 284.9191768452317 169.53673683022228 L 272.3564514300236 169.39448210579818"/></g><g transform="translate(-14,-65) scale(1,1)"><path fill="none" stroke="#000000" d="M 282.00867115256443 177.4366808531763 L 293 177 L 284.9191768452317 169.53673683022228 L 272.3564514300236 169.39448210579818 L 282.00867115256443 177.4366808531763" stroke-miterlimit="10"/></g><g transform="translate(-14,-65) scale(1,1)"><path fill="none" stroke="#000000" d="M 286 367 L 368 251" stroke-miterlimit="10"/></g><g transform="translate(-14,-65) scale(1,1)"><path fill="#FFFFFF" stroke="none" d="M 365.5711375461965 261.7284960353492 L 368 251 L 358.69634258981773 256.86872718687454 L 355.30081200944625 268.9647049622468"/></g><g transform="translate(-14,-65) scale(1,1)"><path fill="none" stroke="#000000" d="M 365.5711375461965 261.7284960353492 L 368 251 L 358.69634258981773 256.86872718687454 L 355.30081200944625 268.9647049622468 L 365.5711375461965 261.7284960353492" stroke-miterlimit="10"/></g></g></svg>