<svg version="1.1" xmlns="http://www.w3.org/2000/svg" xmlns:xlink="http://www.w3.org/1999/xlink" width="292.6689453125" height="561"><defs/><g><text fill="#eeeeee" stroke="none" font-family="Arial" font-size="24px" font-style="normal" font-weight="normal" text-decoration="none" x="0" y="0">UNREGISTERED</text><text fill="#eeeeee" stroke="none" font-family="Arial" font-size="24px" font-style="normal" font-weight="normal" text-decoration="none" x="0" y="30">UNREGISTERED</text><text fill="#eeeeee" stroke="none" font-family="Arial" font-size="24px" font-style="normal" font-weight="normal" text-decoration="none" x="0" y="60">UNREGISTERED</text><text fill="#eeeeee" stroke="none" font-family="Arial" font-size="24px" font-style="normal" font-weight="normal" text-decoration="none" x="0" y="90">UNREGISTERED</text><text fill="#eeeeee" stroke="none" font-family="Arial" font-size="24px" font-style="normal" font-weight="normal" text-decoration="none" x="0" y="120">UNREGISTERED</text><text fill="#eeeeee" stroke="none" font-family="Arial" font-size="24px" font-style="normal" font-weight="normal" text-decoration="none" x="0" y="150">UNREGISTERED</text><text fill="#eeeeee" stroke="none" font-family="Arial" font-size="24px" font-style="normal" font-weight="normal" text-decoration="none" x="0" y="180">UNREGISTERED</text><text fill="#eeeeee" stroke="none" font-family="Arial" font-size="24px" font-style="normal" font-weight="normal" text-decoration="none" x="0" y="210">UNREGISTERED</text><text fill="#eeeeee" stroke="none" font-family="Arial" font-size="24px" font-style="normal" font-weight="normal" text-decoration="none" x="0" y="240">UNREGISTERED</text><text fill="#eeeeee" stroke="none" font-family="Arial" font-size="24px" font-style="normal" font-weight="normal" text-decoration="none" x="0" y="270">UNREGISTERED</text><text fill="#eeeeee" stroke="none" font-family="Arial" font-size="24px" font-style="normal" font-weight="normal" text-decoration="none" x="0" y="300">UNREGISTERED</text><text fill="#eeeeee" stroke="none" font-family="Arial" font-size="24px" font-style="normal" font-weight="normal" text-decoration="none" x="0" y="330">UNREGISTERED</text><text fill="#eeeeee" stroke="none" font-family="Arial" font-size="24px" font-style="normal" font-weight="normal" text-decoration="none" x="0" y="360">UNREGISTERED</text><text fill="#eeeeee" stroke="none" font-family="Arial" font-size="24px" font-style="normal" font-weight="normal" text-decoration="none" x="0" y="390">UNREGISTERED</text><text fill="#eeeeee" stroke="none" font-family="Arial" font-size="24px" font-style="normal" font-weight="normal" text-decoration="none" x="0" y="420">UNREGISTERED</text><text fill="#eeeeee" stroke="none" font-family="Arial" font-size="24px" font-style="normal" font-weight="normal" text-decoration="none" x="0" y="450">UNREGISTERED</text><text fill="#eeeeee" stroke="none" font-family="Arial" font-size="24px" font-style="normal" font-weight="normal" text-decoration="none" x="0" y="480">UNREGISTERED</text><text fill="#eeeeee" stroke="none" font-family="Arial" font-size="24px" font-style="normal" font-weight="normal" text-decoration="none" x="0" y="510">UNREGISTERED</text><text fill="#eeeeee" stroke="none" font-family="Arial" font-size="24px" font-style="normal" font-weight="normal" text-decoration="none" x="0" y="540">UNREGISTERED</text><text fill="#eeeeee" stroke="none" font-family="Arial" font-size="24px" font-style="normal" font-weight="normal" text-decoration="none" x="200" y="0">UNREGISTERED</text><text fill="#eeeeee" stroke="none" font-family="Arial" font-size="24px" font-style="normal" font-weight="normal" text-decoration="none" x="200" y="30">UNREGISTERED</text><text fill="#eeeeee" stroke="none" font-family="Arial" font-size="24px" font-style="normal" font-weight="normal" text-decoration="none" x="200" y="60">UNREGISTERED</text><text fill="#eeeeee" stroke="none" font-family="Arial" font-size="24px" font-style="normal" font-weight="normal" text-decoration="none" x="200" y="90">UNREGISTERED</text><text fill="#eeeeee" stroke="none" font-family="Arial" font-size="24px" font-style="normal" font-weight="normal" text-decoration="none" x="200" y="120">UNREGISTERED</text><text fill="#eeeeee" stroke="none" font-family="Arial" font-size="24px" font-style="normal" font-weight="normal" text-decoration="none" x="200" y="150">UNREGISTERED</text><text fill="#eeeeee" stroke="none" font-family="Arial" font-size="24px" font-style="normal" font-weight="normal" text-decoration="none" x="200" y="180">UNREGISTERED</text><text fill="#eeeeee" stroke="none" font-family="Arial" font-size="24px" font-style="normal" font-weight="normal" text-decoration="none" x="200" y="210">UNREGISTERED</text><text fill="#eeeeee" stroke="none" font-family="Arial" font-size="24px" font-style="normal" font-weight="normal" text-decoration="none" x="200" y="240">UNREGISTERED</text><text fill="#eeeeee" stroke="none" font-family="Arial" font-size="24px" font-style="normal" font-weight="normal" text-decoration="none" x="200" y="270">UNREGISTERED</text><text fill="#eeeeee" stroke="none" font-family="Arial" font-size="24px" font-style="normal" font-weight="normal" text-decoration="none" x="200" y="300">UNREGISTERED</text><text fill="#eeeeee" stroke="none" font-family="Arial" font-size="24px" font-style="normal" font-weight="normal" text-decoration="none" x="200" y="330">UNREGISTERED</text><text fill="#eeeeee" stroke="none" font-family="Arial" font-size="24px" font-style="normal" font-weight="normal" text-decoration="none" x="200" y="360">UNREGISTERED</text><text fill="#eeeeee" stroke="none" font-family="Arial" font-size="24px" font-style="normal" font-weight="normal" text-decoration="none" x="200" y="390">UNREGISTERED</text><text fill="#eeeeee" stroke="none" font-family="Arial" font-size="24px" font-style="normal" font-weight="normal" text-decoration="none" x="200" y="420">UNREGISTERED</text><text fill="#eeeeee" stroke="none" font-family="Arial" font-size="24px" font-style="normal" font-weight="normal" text-decoration="none" x="200" y="450">UNREGISTERED</text><text fill="#eeeeee" stroke="none" font-family="Arial" font-size="24px" font-style="normal" font-weight="normal" text-decoration="none" x="200" y="480">UNREGISTERED</text><text fill="#eeeeee" stroke="none" font-family="Arial" font-size="24px" font-style="normal" font-weight="normal" text-decoration="none" x="200" y="510">UNREGISTERED</text><text fill="#eeeeee" stroke="none" font-family="Arial" font-size="24px" font-style="normal" font-weight="normal" text-decoration="none" x="200" y="540">UNREGISTERED</text><g transform="translate(-96,-77) scale(1,1)"><rect fill="#C0C0C0" stroke="none" x="151" y="94" width="76.88818359375" height="59" opacity="0.2"/></g><g transform="translate(-96,-77) scale(1,1)"><rect fill="#ffffff" stroke="none" x="144" y="87" width="76.88818359375" height="59"/></g><g transform="translate(-96,-77) scale(1,1)"><path fill="none" stroke="#000000" d="M 144 87 L 220.88818359375 87 L 220.88818359375 146 L 144 146 L 144 87 Z Z" stroke-miterlimit="10"/></g><g transform="translate(-96,-77) scale(1,1)"><path fill="none" stroke="#000000" d="M 144 112 L 220.88818359375 112" stroke-miterlimit="10"/></g><g transform="translate(-96,-77) scale(1,1)"><path fill="none" stroke="#000000" d="M 144 122 L 220.88818359375 122" stroke-miterlimit="10"/></g><g transform="translate(-96,-77) scale(1,1)"><g><path fill="none" stroke="none"/><text fill="#000000" stroke="none" font-family="Arial" font-size="13px" font-style="normal" font-weight="bold" text-decoration="none" x="163.658203125" y="106.5">Object</text></g></g><g transform="translate(-96,-77) scale(1,1)"><rect fill="#C0C0C0" stroke="none" x="113" y="255" width="85.58447265625" height="59" opacity="0.2"/></g><g transform="translate(-96,-77) scale(1,1)"><rect fill="#ffffff" stroke="none" x="106" y="248" width="85.58447265625" height="59"/></g><g transform="translate(-96,-77) scale(1,1)"><path fill="none" stroke="#000000" d="M 106 248 L 191.58447265625 248 L 191.58447265625 307 L 106 307 L 106 248 Z Z" stroke-miterlimit="10"/></g><g transform="translate(-96,-77) scale(1,1)"><path fill="none" stroke="#000000" d="M 106 273 L 191.58447265625 273" stroke-miterlimit="10"/></g><g transform="translate(-96,-77) scale(1,1)"><path fill="none" stroke="#000000" d="M 106 283 L 191.58447265625 283" stroke-miterlimit="10"/></g><g transform="translate(-96,-77) scale(1,1)"><g><path fill="none" stroke="none"/><text fill="#000000" stroke="none" font-family="Arial" font-size="13px" font-style="normal" font-weight="bold" text-decoration="none" x="112.305908203125" y="267.5">GameObject</text></g></g><g transform="translate(-96,-77) scale(1,1)"><path fill="none" stroke="#000000" d="M 154 247 L 175 147" stroke-miterlimit="10"/></g><g transform="translate(-96,-77) scale(1,1)"><path fill="#FFFFFF" stroke="none" d="M 179.06210888248427 168.62173146227752 L 175 147 L 162.58347179875176 165.16121767469372"/></g><g transform="translate(-96,-77) scale(1,1)"><path fill="none" stroke="#000000" d="M 179.06210888248427 168.62173146227752 L 175 147 L 162.58347179875176 165.16121767469372 L 179.06210888248427 168.62173146227752" stroke-miterlimit="10"/></g><g transform="translate(-96,-77) scale(1,1)"><rect fill="#C0C0C0" stroke="none" x="271" y="263" width="81.2109375" height="59" opacity="0.2"/></g><g transform="translate(-96,-77) scale(1,1)"><rect fill="#ffffff" stroke="none" x="264" y="256" width="81.2109375" height="59"/></g><g transform="translate(-96,-77) scale(1,1)"><path fill="none" stroke="#000000" d="M 264 256 L 345.2109375 256 L 345.2109375 315 L 264 315 L 264 256 Z Z" stroke-miterlimit="10"/></g><g transform="translate(-96,-77) scale(1,1)"><path fill="none" stroke="#000000" d="M 264 281 L 345.2109375 281" stroke-miterlimit="10"/></g><g transform="translate(-96,-77) scale(1,1)"><path fill="none" stroke="#000000" d="M 264 291 L 345.2109375 291" stroke-miterlimit="10"/></g><g transform="translate(-96,-77) scale(1,1)"><g><path fill="none" stroke="none"/><text fill="#000000" stroke="none" font-family="Arial" font-size="13px" font-style="normal" font-weight="bold" text-decoration="none" x="271.0009765625" y="275.5">Component</text></g></g><g transform="translate(-96,-77) scale(1,1)"><path fill="none" stroke="#000000" d="M 263 283 L 193 279" stroke-miterlimit="10"/></g><g transform="translate(-96,-77) scale(1,1)"><path fill="#000000" stroke="none" d="M 203.38627536517208 275.3771166125834 L 193 279 L 202.90597115267437 283.78244033129357 L 214.96416935732748 280.2550953918473"/></g><g transform="translate(-96,-77) scale(1,1)"><path fill="none" stroke="#000000" d="M 203.38627536517208 275.3771166125834 L 193 279 L 202.90597115267437 283.78244033129357 L 214.96416935732748 280.2550953918473 L 203.38627536517208 275.3771166125834" stroke-miterlimit="10"/></g><g transform="translate(-96,-77) scale(1,1)"><path fill="none" stroke="#000000" d="M 282 255 L 204 147" stroke-miterlimit="10"/></g><g transform="translate(-96,-77) scale(1,1)"><path fill="#FFFFFF" stroke="none" d="M 222.7254374746263 158.5480730593403 L 204 147 L 209.07516304909572 168.40660458889016"/></g><g transform="translate(-96,-77) scale(1,1)"><path fill="none" stroke="#000000" d="M 222.7254374746263 158.5480730593403 L 204 147 L 209.07516304909572 168.40660458889016 L 222.7254374746263 158.5480730593403" stroke-miterlimit="10"/></g><g transform="translate(-96,-77) scale(1,1)"><rect fill="#C0C0C0" stroke="none" x="295" y="367" width="90.6689453125" height="72" opacity="0.2"/></g><g transform="translate(-96,-77) scale(1,1)"><rect fill="#ffffff" stroke="none" x="288" y="360" width="90.6689453125" height="72"/></g><g transform="translate(-96,-77) scale(1,1)"><path fill="none" stroke="#000000" d="M 288 360 L 378.6689453125 360 L 378.6689453125 432 L 288 432 L 288 360 Z Z" stroke-miterlimit="10"/></g><g transform="translate(-96,-77) scale(1,1)"><path fill="none" stroke="#000000" d="M 288 398 L 378.6689453125 398" stroke-miterlimit="10"/></g><g transform="translate(-96,-77) scale(1,1)"><path fill="none" stroke="#000000" d="M 288 408 L 378.6689453125 408" stroke-miterlimit="10"/></g><g transform="translate(-96,-77) scale(1,1)"><g><path fill="none" stroke="none"/><text fill="#000000" stroke="none" font-family="Arial" font-size="13px" font-style="normal" font-weight="normal" text-decoration="none" x="292.5" y="377.5">«Component»</text></g></g><g transform="translate(-96,-77) scale(1,1)"><g><path fill="none" stroke="none"/><text fill="#000000" stroke="none" font-family="Arial" font-size="13px" font-style="normal" font-weight="bold" text-decoration="none" x="306.236328125" y="392.5">Renderer</text></g></g><g transform="translate(-96,-77) scale(1,1)"><path fill="none" stroke="#000000" d="M 323 359 L 312 316" stroke-miterlimit="10"/></g><g transform="translate(-96,-77) scale(1,1)"><path fill="#FFFFFF" stroke="none" d="M 325.1936818501128 333.6047368409188 L 312 316 L 308.88091310381435 337.777770706251"/></g><g transform="translate(-96,-77) scale(1,1)"><path fill="none" stroke="#000000" d="M 325.1936818501128 333.6047368409188 L 312 316 L 308.88091310381435 337.777770706251 L 325.1936818501128 333.6047368409188" stroke-miterlimit="10"/></g><g transform="translate(-96,-77) scale(1,1)"><rect fill="#C0C0C0" stroke="none" x="238" y="563" width="99.30810546875" height="72" opacity="0.2"/></g><g transform="translate(-96,-77) scale(1,1)"><rect fill="#ffffff" stroke="none" x="231" y="556" width="99.30810546875" height="72"/></g><g transform="translate(-96,-77) scale(1,1)"><path fill="none" stroke="#000000" d="M 231 556 L 330.30810546875 556 L 330.30810546875 628 L 231 628 L 231 556 Z Z" stroke-miterlimit="10"/></g><g transform="translate(-96,-77) scale(1,1)"><path fill="none" stroke="#000000" d="M 231 594 L 330.30810546875 594" stroke-miterlimit="10"/></g><g transform="translate(-96,-77) scale(1,1)"><path fill="none" stroke="#000000" d="M 231 604 L 330.30810546875 604" stroke-miterlimit="10"/></g><g transform="translate(-96,-77) scale(1,1)"><g><path fill="none" stroke="none"/><text fill="#000000" stroke="none" font-family="Arial" font-size="13px" font-style="normal" font-weight="normal" text-decoration="none" x="239.819580078125" y="573.5">«Component»</text></g></g><g transform="translate(-96,-77) scale(1,1)"><g><path fill="none" stroke="none"/><text fill="#000000" stroke="none" font-family="Arial" font-size="13px" font-style="normal" font-weight="bold" text-decoration="none" x="237.661376953125" y="588.5">MeshRenderer</text></g></g><g transform="translate(-96,-77) scale(1,1)"><path fill="none" stroke="#000000" d="M 290 555 L 323 433" stroke-miterlimit="10"/></g><g transform="translate(-96,-77) scale(1,1)"><path fill="#FFFFFF" stroke="none" d="M 325.81985732925534 454.81853351265033 L 323 433 L 309.5659072371541 450.42197324183604"/></g><g transform="translate(-96,-77) scale(1,1)"><path fill="none" stroke="#000000" d="M 325.81985732925534 454.81853351265033 L 323 433 L 309.5659072371541 450.42197324183604 L 325.81985732925534 454.81853351265033" stroke-miterlimit="10"/></g></g></svg>