<svg version="1.1" xmlns="http://www.w3.org/2000/svg" xmlns:xlink="http://www.w3.org/1999/xlink" width="848.298828125" height="504"><defs/><g><text fill="#eeeeee" stroke="none" font-family="Arial" font-size="24px" font-style="normal" font-weight="normal" text-decoration="none" x="0" y="0">UNREGISTERED</text><text fill="#eeeeee" stroke="none" font-family="Arial" font-size="24px" font-style="normal" font-weight="normal" text-decoration="none" x="0" y="30">UNREGISTERED</text><text fill="#eeeeee" stroke="none" font-family="Arial" font-size="24px" font-style="normal" font-weight="normal" text-decoration="none" x="0" y="60">UNREGISTERED</text><text fill="#eeeeee" stroke="none" font-family="Arial" font-size="24px" font-style="normal" font-weight="normal" text-decoration="none" x="0" y="90">UNREGISTERED</text><text fill="#eeeeee" stroke="none" font-family="Arial" font-size="24px" font-style="normal" font-weight="normal" text-decoration="none" x="0" y="120">UNREGISTERED</text><text fill="#eeeeee" stroke="none" font-family="Arial" font-size="24px" font-style="normal" font-weight="normal" text-decoration="none" x="0" y="150">UNREGISTERED</text><text fill="#eeeeee" stroke="none" font-family="Arial" font-size="24px" font-style="normal" font-weight="normal" text-decoration="none" x="0" y="180">UNREGISTERED</text><text fill="#eeeeee" stroke="none" font-family="Arial" font-size="24px" font-style="normal" font-weight="normal" text-decoration="none" x="0" y="210">UNREGISTERED</text><text fill="#eeeeee" stroke="none" font-family="Arial" font-size="24px" font-style="normal" font-weight="normal" text-decoration="none" x="0" y="240">UNREGISTERED</text><text fill="#eeeeee" stroke="none" font-family="Arial" font-size="24px" font-style="normal" font-weight="normal" text-decoration="none" x="0" y="270">UNREGISTERED</text><text fill="#eeeeee" stroke="none" font-family="Arial" font-size="24px" font-style="normal" font-weight="normal" text-decoration="none" x="0" y="300">UNREGISTERED</text><text fill="#eeeeee" stroke="none" font-family="Arial" font-size="24px" font-style="normal" font-weight="normal" text-decoration="none" x="0" y="330">UNREGISTERED</text><text fill="#eeeeee" stroke="none" font-family="Arial" font-size="24px" font-style="normal" font-weight="normal" text-decoration="none" x="0" y="360">UNREGISTERED</text><text fill="#eeeeee" stroke="none" font-family="Arial" font-size="24px" font-style="normal" font-weight="normal" text-decoration="none" x="0" y="390">UNREGISTERED</text><text fill="#eeeeee" stroke="none" font-family="Arial" font-size="24px" font-style="normal" font-weight="normal" text-decoration="none" x="0" y="420">UNREGISTERED</text><text fill="#eeeeee" stroke="none" font-family="Arial" font-size="24px" font-style="normal" font-weight="normal" text-decoration="none" x="0" y="450">UNREGISTERED</text><text fill="#eeeeee" stroke="none" font-family="Arial" font-size="24px" font-style="normal" font-weight="normal" text-decoration="none" x="0" y="480">UNREGISTERED</text><text fill="#eeeeee" stroke="none" font-family="Arial" font-size="24px" font-style="normal" font-weight="normal" text-decoration="none" x="200" y="0">UNREGISTERED</text><text fill="#eeeeee" stroke="none" font-family="Arial" font-size="24px" font-style="normal" font-weight="normal" text-decoration="none" x="200" y="30">UNREGISTERED</text><text fill="#eeeeee" stroke="none" font-family="Arial" font-size="24px" font-style="normal" font-weight="normal" text-decoration="none" x="200" y="60">UNREGISTERED</text><text fill="#eeeeee" stroke="none" font-family="Arial" font-size="24px" font-style="normal" font-weight="normal" text-decoration="none" x="200" y="90">UNREGISTERED</text><text fill="#eeeeee" stroke="none" font-family="Arial" font-size="24px" font-style="normal" font-weight="normal" text-decoration="none" x="200" y="120">UNREGISTERED</text><text fill="#eeeeee" stroke="none" font-family="Arial" font-size="24px" font-style="normal" font-weight="normal" text-decoration="none" x="200" y="150">UNREGISTERED</text><text fill="#eeeeee" stroke="none" font-family="Arial" font-size="24px" font-style="normal" font-weight="normal" text-decoration="none" x="200" y="180">UNREGISTERED</text><text fill="#eeeeee" stroke="none" font-family="Arial" font-size="24px" font-style="normal" font-weight="normal" text-decoration="none" x="200" y="210">UNREGISTERED</text><text fill="#eeeeee" stroke="none" font-family="Arial" font-size="24px" font-style="normal" font-weight="normal" text-decoration="none" x="200" y="240">UNREGISTERED</text><text fill="#eeeeee" stroke="none" font-family="Arial" font-size="24px" font-style="normal" font-weight="normal" text-decoration="none" x="200" y="270">UNREGISTERED</text><text fill="#eeeeee" stroke="none" font-family="Arial" font-size="24px" font-style="normal" font-weight="normal" text-decoration="none" x="200" y="300">UNREGISTERED</text><text fill="#eeeeee" stroke="none" font-family="Arial" font-size="24px" font-style="normal" font-weight="normal" text-decoration="none" x="200" y="330">UNREGISTERED</text><text fill="#eeeeee" stroke="none" font-family="Arial" font-size="24px" font-style="normal" font-weight="normal" text-decoration="none" x="200" y="360">UNREGISTERED</text><text fill="#eeeeee" stroke="none" font-family="Arial" font-size="24px" font-style="normal" font-weight="normal" text-decoration="none" x="200" y="390">UNREGISTERED</text><text fill="#eeeeee" stroke="none" font-family="Arial" font-size="24px" font-style="normal" font-weight="normal" text-decoration="none" x="200" y="420">UNREGISTERED</text><text fill="#eeeeee" stroke="none" font-family="Arial" font-size="24px" font-style="normal" font-weight="normal" text-decoration="none" x="200" y="450">UNREGISTERED</text><text fill="#eeeeee" stroke="none" font-family="Arial" font-size="24px" font-style="normal" font-weight="normal" text-decoration="none" x="200" y="480">UNREGISTERED</text><text fill="#eeeeee" stroke="none" font-family="Arial" font-size="24px" font-style="normal" font-weight="normal" text-decoration="none" x="400" y="0">UNREGISTERED</text><text fill="#eeeeee" stroke="none" font-family="Arial" font-size="24px" font-style="normal" font-weight="normal" text-decoration="none" x="400" y="30">UNREGISTERED</text><text fill="#eeeeee" stroke="none" font-family="Arial" font-size="24px" font-style="normal" font-weight="normal" text-decoration="none" x="400" y="60">UNREGISTERED</text><text fill="#eeeeee" stroke="none" font-family="Arial" font-size="24px" font-style="normal" font-weight="normal" text-decoration="none" x="400" y="90">UNREGISTERED</text><text fill="#eeeeee" stroke="none" font-family="Arial" font-size="24px" font-style="normal" font-weight="normal" text-decoration="none" x="400" y="120">UNREGISTERED</text><text fill="#eeeeee" stroke="none" font-family="Arial" font-size="24px" font-style="normal" font-weight="normal" text-decoration="none" x="400" y="150">UNREGISTERED</text><text fill="#eeeeee" stroke="none" font-family="Arial" font-size="24px" font-style="normal" font-weight="normal" text-decoration="none" x="400" y="180">UNREGISTERED</text><text fill="#eeeeee" stroke="none" font-family="Arial" font-size="24px" font-style="normal" font-weight="normal" text-decoration="none" x="400" y="210">UNREGISTERED</text><text fill="#eeeeee" stroke="none" font-family="Arial" font-size="24px" font-style="normal" font-weight="normal" text-decoration="none" x="400" y="240">UNREGISTERED</text><text fill="#eeeeee" stroke="none" font-family="Arial" font-size="24px" font-style="normal" font-weight="normal" text-decoration="none" x="400" y="270">UNREGISTERED</text><text fill="#eeeeee" stroke="none" font-family="Arial" font-size="24px" font-style="normal" font-weight="normal" text-decoration="none" x="400" y="300">UNREGISTERED</text><text fill="#eeeeee" stroke="none" font-family="Arial" font-size="24px" font-style="normal" font-weight="normal" text-decoration="none" x="400" y="330">UNREGISTERED</text><text fill="#eeeeee" stroke="none" font-family="Arial" font-size="24px" font-style="normal" font-weight="normal" text-decoration="none" x="400" y="360">UNREGISTERED</text><text fill="#eeeeee" stroke="none" font-family="Arial" font-size="24px" font-style="normal" font-weight="normal" text-decoration="none" x="400" y="390">UNREGISTERED</text><text fill="#eeeeee" stroke="none" font-family="Arial" font-size="24px" font-style="normal" font-weight="normal" text-decoration="none" x="400" y="420">UNREGISTERED</text><text fill="#eeeeee" stroke="none" font-family="Arial" font-size="24px" font-style="normal" font-weight="normal" text-decoration="none" x="400" y="450">UNREGISTERED</text><text fill="#eeeeee" stroke="none" font-family="Arial" font-size="24px" font-style="normal" font-weight="normal" text-decoration="none" x="400" y="480">UNREGISTERED</text><text fill="#eeeeee" stroke="none" font-family="Arial" font-size="24px" font-style="normal" font-weight="normal" text-decoration="none" x="600" y="0">UNREGISTERED</text><text fill="#eeeeee" stroke="none" font-family="Arial" font-size="24px" font-style="normal" font-weight="normal" text-decoration="none" x="600" y="30">UNREGISTERED</text><text fill="#eeeeee" stroke="none" font-family="Arial" font-size="24px" font-style="normal" font-weight="normal" text-decoration="none" x="600" y="60">UNREGISTERED</text><text fill="#eeeeee" stroke="none" font-family="Arial" font-size="24px" font-style="normal" font-weight="normal" text-decoration="none" x="600" y="90">UNREGISTERED</text><text fill="#eeeeee" stroke="none" font-family="Arial" font-size="24px" font-style="normal" font-weight="normal" text-decoration="none" x="600" y="120">UNREGISTERED</text><text fill="#eeeeee" stroke="none" font-family="Arial" font-size="24px" font-style="normal" font-weight="normal" text-decoration="none" x="600" y="150">UNREGISTERED</text><text fill="#eeeeee" stroke="none" font-family="Arial" font-size="24px" font-style="normal" font-weight="normal" text-decoration="none" x="600" y="180">UNREGISTERED</text><text fill="#eeeeee" stroke="none" font-family="Arial" font-size="24px" font-style="normal" font-weight="normal" text-decoration="none" x="600" y="210">UNREGISTERED</text><text fill="#eeeeee" stroke="none" font-family="Arial" font-size="24px" font-style="normal" font-weight="normal" text-decoration="none" x="600" y="240">UNREGISTERED</text><text fill="#eeeeee" stroke="none" font-family="Arial" font-size="24px" font-style="normal" font-weight="normal" text-decoration="none" x="600" y="270">UNREGISTERED</text><text fill="#eeeeee" stroke="none" font-family="Arial" font-size="24px" font-style="normal" font-weight="normal" text-decoration="none" x="600" y="300">UNREGISTERED</text><text fill="#eeeeee" stroke="none" font-family="Arial" font-size="24px" font-style="normal" font-weight="normal" text-decoration="none" x="600" y="330">UNREGISTERED</text><text fill="#eeeeee" stroke="none" font-family="Arial" font-size="24px" font-style="normal" font-weight="normal" text-decoration="none" x="600" y="360">UNREGISTERED</text><text fill="#eeeeee" stroke="none" font-family="Arial" font-size="24px" font-style="normal" font-weight="normal" text-decoration="none" x="600" y="390">UNREGISTERED</text><text fill="#eeeeee" stroke="none" font-family="Arial" font-size="24px" font-style="normal" font-weight="normal" text-decoration="none" x="600" y="420">UNREGISTERED</text><text fill="#eeeeee" stroke="none" font-family="Arial" font-size="24px" font-style="normal" font-weight="normal" text-decoration="none" x="600" y="450">UNREGISTERED</text><text fill="#eeeeee" stroke="none" font-family="Arial" font-size="24px" font-style="normal" font-weight="normal" text-decoration="none" x="600" y="480">UNREGISTERED</text><text fill="#eeeeee" stroke="none" font-family="Arial" font-size="24px" font-style="normal" font-weight="normal" text-decoration="none" x="800" y="0">UNREGISTERED</text><text fill="#eeeeee" stroke="none" font-family="Arial" font-size="24px" font-style="normal" font-weight="normal" text-decoration="none" x="800" y="30">UNREGISTERED</text><text fill="#eeeeee" stroke="none" font-family="Arial" font-size="24px" font-style="normal" font-weight="normal" text-decoration="none" x="800" y="60">UNREGISTERED</text><text fill="#eeeeee" stroke="none" font-family="Arial" font-size="24px" font-style="normal" font-weight="normal" text-decoration="none" x="800" y="90">UNREGISTERED</text><text fill="#eeeeee" stroke="none" font-family="Arial" font-size="24px" font-style="normal" font-weight="normal" text-decoration="none" x="800" y="120">UNREGISTERED</text><text fill="#eeeeee" stroke="none" font-family="Arial" font-size="24px" font-style="normal" font-weight="normal" text-decoration="none" x="800" y="150">UNREGISTERED</text><text fill="#eeeeee" stroke="none" font-family="Arial" font-size="24px" font-style="normal" font-weight="normal" text-decoration="none" x="800" y="180">UNREGISTERED</text><text fill="#eeeeee" stroke="none" font-family="Arial" font-size="24px" font-style="normal" font-weight="normal" text-decoration="none" x="800" y="210">UNREGISTERED</text><text fill="#eeeeee" stroke="none" font-family="Arial" font-size="24px" font-style="normal" font-weight="normal" text-decoration="none" x="800" y="240">UNREGISTERED</text><text fill="#eeeeee" stroke="none" font-family="Arial" font-size="24px" font-style="normal" font-weight="normal" text-decoration="none" x="800" y="270">UNREGISTERED</text><text fill="#eeeeee" stroke="none" font-family="Arial" font-size="24px" font-style="normal" font-weight="normal" text-decoration="none" x="800" y="300">UNREGISTERED</text><text fill="#eeeeee" stroke="none" font-family="Arial" font-size="24px" font-style="normal" font-weight="normal" text-decoration="none" x="800" y="330">UNREGISTERED</text><text fill="#eeeeee" stroke="none" font-family="Arial" font-size="24px" font-style="normal" font-weight="normal" text-decoration="none" x="800" y="360">UNREGISTERED</text><text fill="#eeeeee" stroke="none" font-family="Arial" font-size="24px" font-style="normal" font-weight="normal" text-decoration="none" x="800" y="390">UNREGISTERED</text><text fill="#eeeeee" stroke="none" font-family="Arial" font-size="24px" font-style="normal" font-weight="normal" text-decoration="none" x="800" y="420">UNREGISTERED</text><text fill="#eeeeee" stroke="none" font-family="Arial" font-size="24px" font-style="normal" font-weight="normal" text-decoration="none" x="800" y="450">UNREGISTERED</text><text fill="#eeeeee" stroke="none" font-family="Arial" font-size="24px" font-style="normal" font-weight="normal" text-decoration="none" x="800" y="480">UNREGISTERED</text><g transform="translate(-22,-118) scale(1,1)"><rect fill="#C0C0C0" stroke="none" x="223" y="159" width="184" height="85" opacity="0.2"/></g><g transform="translate(-22,-118) scale(1,1)"><rect fill="#ffffff" stroke="none" x="216" y="152" width="184" height="85"/></g><g transform="translate(-22,-118) scale(1,1)"><path fill="none" stroke="#000000" d="M 216 152 L 400 152 L 400 237 L 216 237 L 216 152 Z Z" stroke-miterlimit="10"/></g><g transform="translate(-22,-118) scale(1,1)"><path fill="none" stroke="#000000" d="M 216 190 L 400 190" stroke-miterlimit="10"/></g><g transform="translate(-22,-118) scale(1,1)"><path fill="none" stroke="#000000" d="M 216 213 L 400 213" stroke-miterlimit="10"/></g><g transform="translate(-22,-118) scale(1,1)"><g><path fill="none" stroke="none"/><text fill="#000000" stroke="none" font-family="Arial" font-size="13px" font-style="normal" font-weight="normal" text-decoration="none" x="264.28369140625" y="169.5">«GameObject»</text></g></g><g transform="translate(-22,-118) scale(1,1)"><g><path fill="none" stroke="none"/><text fill="#000000" stroke="none" font-family="Arial" font-size="13px" font-style="normal" font-weight="bold" text-decoration="none" x="263.1982421875" y="184.5">DirectionalLight</text></g></g><g transform="translate(-22,-118) scale(1,1)"><g><path fill="none" stroke="none"/><text fill="#000000" stroke="none" font-family="Arial" font-size="13px" font-style="normal" font-weight="normal" text-decoration="none" x="221" y="207.5">+Light: Component</text></g></g><g transform="translate(-22,-118) scale(1,1)"><rect fill="#C0C0C0" stroke="none" x="535" y="135" width="104.3671875" height="72" opacity="0.2"/></g><g transform="translate(-22,-118) scale(1,1)"><rect fill="#ffffff" stroke="none" x="528" y="128" width="104.3671875" height="72"/></g><g transform="translate(-22,-118) scale(1,1)"><path fill="none" stroke="#000000" d="M 528 128 L 632.3671875 128 L 632.3671875 200 L 528 200 L 528 128 Z Z" stroke-miterlimit="10"/></g><g transform="translate(-22,-118) scale(1,1)"><path fill="none" stroke="#000000" d="M 528 166 L 632.3671875 166" stroke-miterlimit="10"/></g><g transform="translate(-22,-118) scale(1,1)"><path fill="none" stroke="#000000" d="M 528 176 L 632.3671875 176" stroke-miterlimit="10"/></g><g transform="translate(-22,-118) scale(1,1)"><g><path fill="none" stroke="none"/><text fill="#000000" stroke="none" font-family="Arial" font-size="13px" font-style="normal" font-weight="normal" text-decoration="none" x="536.46728515625" y="145.5">«GameObject»</text></g></g><g transform="translate(-22,-118) scale(1,1)"><g><path fill="none" stroke="none"/><text fill="#000000" stroke="none" font-family="Arial" font-size="13px" font-style="normal" font-weight="bold" text-decoration="none" x="533.947265625" y="160.5">VRMainCamera</text></g></g><g transform="translate(-22,-118) scale(1,1)"><rect fill="#C0C0C0" stroke="none" x="639" y="311" width="228.298828125" height="85" opacity="0.2"/></g><g transform="translate(-22,-118) scale(1,1)"><rect fill="#ffffff" stroke="none" x="632" y="304" width="228.298828125" height="85"/></g><g transform="translate(-22,-118) scale(1,1)"><path fill="none" stroke="#000000" d="M 632 304 L 860.298828125 304 L 860.298828125 389 L 632 389 L 632 304 Z Z" stroke-miterlimit="10"/></g><g transform="translate(-22,-118) scale(1,1)"><path fill="none" stroke="#000000" d="M 632 342 L 860.298828125 342" stroke-miterlimit="10"/></g><g transform="translate(-22,-118) scale(1,1)"><path fill="none" stroke="#000000" d="M 632 380 L 860.298828125 380" stroke-miterlimit="10"/></g><g transform="translate(-22,-118) scale(1,1)"><g><path fill="none" stroke="none"/><text fill="#000000" stroke="none" font-family="Arial" font-size="13px" font-style="normal" font-weight="normal" text-decoration="none" x="702.43310546875" y="321.5">«GameObject»</text></g></g><g transform="translate(-22,-118) scale(1,1)"><g><path fill="none" stroke="none"/><text fill="#000000" stroke="none" font-family="Arial" font-size="13px" font-style="normal" font-weight="bold" text-decoration="none" x="707.857177734375" y="336.5">EventSystem</text></g></g><g transform="translate(-22,-118) scale(1,1)"><g><path fill="none" stroke="none"/><text fill="#000000" stroke="none" font-family="Arial" font-size="13px" font-style="normal" font-weight="normal" text-decoration="none" x="637" y="359.5">+EventSystem: GameObject</text></g></g><g transform="translate(-22,-118) scale(1,1)"><g><path fill="none" stroke="none"/><text fill="#000000" stroke="none" font-family="Arial" font-size="13px" font-style="normal" font-weight="normal" text-decoration="none" x="637" y="374.5">+Input System UI Input Module: Script</text></g></g><g transform="translate(-22,-118) scale(1,1)"><rect fill="#C0C0C0" stroke="none" x="55" y="449" width="143.7607421875" height="85" opacity="0.2"/></g><g transform="translate(-22,-118) scale(1,1)"><rect fill="#ffffff" stroke="none" x="48" y="442" width="143.7607421875" height="85"/></g><g transform="translate(-22,-118) scale(1,1)"><path fill="none" stroke="#000000" d="M 48 442 L 191.7607421875 442 L 191.7607421875 527 L 48 527 L 48 442 Z Z" stroke-miterlimit="10"/></g><g transform="translate(-22,-118) scale(1,1)"><path fill="none" stroke="#000000" d="M 48 480 L 191.7607421875 480" stroke-miterlimit="10"/></g><g transform="translate(-22,-118) scale(1,1)"><path fill="none" stroke="#000000" d="M 48 503 L 191.7607421875 503" stroke-miterlimit="10"/></g><g transform="translate(-22,-118) scale(1,1)"><g><path fill="none" stroke="none"/><text fill="#000000" stroke="none" font-family="Arial" font-size="13px" font-style="normal" font-weight="normal" text-decoration="none" x="76.1640625" y="459.5">«GameObject»</text></g></g><g transform="translate(-22,-118) scale(1,1)"><g><path fill="none" stroke="none"/><text fill="#000000" stroke="none" font-family="Arial" font-size="13px" font-style="normal" font-weight="bold" text-decoration="none" x="80.140869140625" y="474.5">GraphCreator</text></g></g><g transform="translate(-22,-118) scale(1,1)"><g><path fill="none" stroke="none"/><text fill="#000000" stroke="none" font-family="Arial" font-size="13px" font-style="normal" font-weight="normal" text-decoration="none" x="53" y="497.5">+GraphCreator: Script</text></g></g><g transform="translate(-22,-118) scale(1,1)"><rect fill="#C0C0C0" stroke="none" x="383" y="519" width="200.45166015625" height="100" opacity="0.2"/></g><g transform="translate(-22,-118) scale(1,1)"><rect fill="#ffffff" stroke="none" x="376" y="512" width="200.45166015625" height="100"/></g><g transform="translate(-22,-118) scale(1,1)"><path fill="none" stroke="#000000" d="M 376 512 L 576.45166015625 512 L 576.45166015625 612 L 376 612 L 376 512 Z Z" stroke-miterlimit="10"/></g><g transform="translate(-22,-118) scale(1,1)"><path fill="none" stroke="#000000" d="M 376 550 L 576.45166015625 550" stroke-miterlimit="10"/></g><g transform="translate(-22,-118) scale(1,1)"><path fill="none" stroke="#000000" d="M 376 603 L 576.45166015625 603" stroke-miterlimit="10"/></g><g transform="translate(-22,-118) scale(1,1)"><g><path fill="none" stroke="none"/><text fill="#000000" stroke="none" font-family="Arial" font-size="13px" font-style="normal" font-weight="normal" text-decoration="none" x="411.552734375" y="529.5">«GameObject:Prefab»</text></g></g><g transform="translate(-22,-118) scale(1,1)"><g><path fill="none" stroke="none"/><text fill="#000000" stroke="none" font-family="Arial" font-size="13px" font-style="normal" font-weight="bold" text-decoration="none" x="432.14453125" y="544.5">GraphMenuSet</text></g></g><g transform="translate(-22,-118) scale(1,1)"><g><path fill="none" stroke="none"/><text fill="#000000" stroke="none" font-family="Arial" font-size="13px" font-style="normal" font-weight="normal" text-decoration="none" x="381" y="567.5">+Third-Level: GameObject</text></g></g><g transform="translate(-22,-118) scale(1,1)"><g><path fill="none" stroke="none"/><text fill="#000000" stroke="none" font-family="Arial" font-size="13px" font-style="normal" font-weight="normal" text-decoration="none" x="381" y="582.5">+Large Data Set: GameObject</text></g></g><g transform="translate(-22,-118) scale(1,1)"><g><path fill="none" stroke="none"/><text fill="#000000" stroke="none" font-family="Arial" font-size="13px" font-style="normal" font-weight="normal" text-decoration="none" x="381" y="597.5">+GraphConfig: GameObject</text></g></g><g transform="translate(-22,-118) scale(1,1)"><rect fill="#C0C0C0" stroke="none" x="39" y="263" width="209.51611328125" height="85" opacity="0.2"/></g><g transform="translate(-22,-118) scale(1,1)"><rect fill="#ffffff" stroke="none" x="32" y="256" width="209.51611328125" height="85"/></g><g transform="translate(-22,-118) scale(1,1)"><path fill="none" stroke="#000000" d="M 32 256 L 241.51611328125 256 L 241.51611328125 341 L 32 341 L 32 256 Z Z" stroke-miterlimit="10"/></g><g transform="translate(-22,-118) scale(1,1)"><path fill="none" stroke="#000000" d="M 32 294 L 241.51611328125 294" stroke-miterlimit="10"/></g><g transform="translate(-22,-118) scale(1,1)"><path fill="none" stroke="#000000" d="M 32 317 L 241.51611328125 317" stroke-miterlimit="10"/></g><g transform="translate(-22,-118) scale(1,1)"><g><path fill="none" stroke="none"/><text fill="#000000" stroke="none" font-family="Arial" font-size="13px" font-style="normal" font-weight="normal" text-decoration="none" x="93.041748046875" y="273.5">«GameObject»</text></g></g><g transform="translate(-22,-118) scale(1,1)"><g><path fill="none" stroke="none"/><text fill="#000000" stroke="none" font-family="Arial" font-size="13px" font-style="normal" font-weight="bold" text-decoration="none" x="85.81494140625" y="288.5">MainMenuAnchor</text></g></g><g transform="translate(-22,-118) scale(1,1)"><g><path fill="none" stroke="none"/><text fill="#000000" stroke="none" font-family="Arial" font-size="13px" font-style="normal" font-weight="normal" text-decoration="none" x="37" y="311.5">+GraphMenuCanvas: GameObject</text></g></g><g transform="translate(-22,-118) scale(1,1)"><rect fill="#C0C0C0" stroke="none" x="321" y="335" width="200.45166015625" height="72" opacity="0.2"/></g><g transform="translate(-22,-118) scale(1,1)"><rect fill="#ffffff" stroke="none" x="314" y="328" width="200.45166015625" height="72"/></g><g transform="translate(-22,-118) scale(1,1)"><path fill="none" stroke="#000000" d="M 314 328 L 514.45166015625 328 L 514.45166015625 400 L 314 400 L 314 328 Z Z" stroke-miterlimit="10"/></g><g transform="translate(-22,-118) scale(1,1)"><path fill="none" stroke="#000000" d="M 314 366 L 514.45166015625 366" stroke-miterlimit="10"/></g><g transform="translate(-22,-118) scale(1,1)"><path fill="none" stroke="#000000" d="M 314 376 L 514.45166015625 376" stroke-miterlimit="10"/></g><g transform="translate(-22,-118) scale(1,1)"><g><path fill="none" stroke="none"/><text fill="#000000" stroke="none" font-family="Arial" font-size="13px" font-style="normal" font-weight="normal" text-decoration="none" x="388.5654296875" y="345.5">«Scene»</text></g></g><g transform="translate(-22,-118) scale(1,1)"><g><path fill="none" stroke="none"/><text fill="#000000" stroke="none" font-family="Arial" font-size="13px" font-style="normal" font-weight="bold" text-decoration="none" x="400.13720703125" y="360.5">Main</text></g></g><g transform="translate(-22,-118) scale(1,1)"><path fill="none" stroke="#000000" d="M 335 238 L 391 327" stroke-miterlimit="10"/></g><g transform="translate(-22,-118) scale(1,1)"><path fill="#FFFFFF" stroke="none" d="M 382.02485502734527 320.6402222743377 L 391 327 L 389.15065608435845 316.15657217104854 L 379.2836576551564 308.37938448765925"/></g><g transform="translate(-22,-118) scale(1,1)"><path fill="none" stroke="#000000" d="M 382.02485502734527 320.6402222743377 L 391 327 L 389.15065608435845 316.15657217104854 L 379.2836576551564 308.37938448765925 L 382.02485502734527 320.6402222743377" stroke-miterlimit="10"/></g><g transform="translate(-22,-118) scale(1,1)"><g><path fill="none" stroke="none"/><text fill="#000000" stroke="none" font-family="Arial" font-size="13px" font-style="normal" font-weight="normal" text-decoration="none" x="331.5" y="268.5">1</text></g></g><g transform="translate(-22,-118) scale(1,1)"><g><path fill="none" stroke="none"/><text fill="#000000" stroke="none" font-family="Arial" font-size="13px" font-style="normal" font-weight="normal" text-decoration="none" x="364.5" y="321.5">1</text></g></g><g transform="translate(-22,-118) scale(1,1)"><path fill="none" stroke="#000000" d="M 549 201 L 445 327" stroke-miterlimit="10"/></g><g transform="translate(-22,-118) scale(1,1)"><path fill="#FFFFFF" stroke="none" d="M 448.2227264741848 316.48267933014364 L 445 327 L 454.7156805093744 321.8419429782366 L 459.0044308032131 310.03309344995336"/></g><g transform="translate(-22,-118) scale(1,1)"><path fill="none" stroke="#000000" d="M 448.2227264741848 316.48267933014364 L 445 327 L 454.7156805093744 321.8419429782366 L 459.0044308032131 310.03309344995336 L 448.2227264741848 316.48267933014364" stroke-miterlimit="10"/></g><g transform="translate(-22,-118) scale(1,1)"><g><path fill="none" stroke="none"/><text fill="#000000" stroke="none" font-family="Arial" font-size="13px" font-style="normal" font-weight="normal" text-decoration="none" x="521.5" y="215.5">1</text></g></g><g transform="translate(-22,-118) scale(1,1)"><g><path fill="none" stroke="none"/><text fill="#000000" stroke="none" font-family="Arial" font-size="13px" font-style="normal" font-weight="normal" text-decoration="none" x="445.5" y="308.5">1</text></g></g><g transform="translate(-22,-118) scale(1,1)"><path fill="none" stroke="#000000" d="M 631 352 L 515 358" stroke-miterlimit="10"/></g><g transform="translate(-22,-118) scale(1,1)"><path fill="#FFFFFF" stroke="none" d="M 524.9316645343629 353.27114817562676 L 515 358 L 525.3665505329586 361.6789441484773 L 536.9706296687264 356.86358812058313"/></g><g transform="translate(-22,-118) scale(1,1)"><path fill="none" stroke="#000000" d="M 524.9316645343629 353.27114817562676 L 515 358 L 525.3665505329586 361.6789441484773 L 536.9706296687264 356.86358812058313 L 524.9316645343629 353.27114817562676" stroke-miterlimit="10"/></g><g transform="translate(-22,-118) scale(1,1)"><g><path fill="none" stroke="none"/><text fill="#000000" stroke="none" font-family="Arial" font-size="13px" font-style="normal" font-weight="normal" text-decoration="none" x="604.5" y="346.5">1</text></g></g><g transform="translate(-22,-118) scale(1,1)"><g><path fill="none" stroke="none"/><text fill="#000000" stroke="none" font-family="Arial" font-size="13px" font-style="normal" font-weight="normal" text-decoration="none" x="531.5" y="350.5">1</text></g></g><g transform="translate(-22,-118) scale(1,1)"><path fill="none" stroke="#000000" d="M 460 511 L 426 401" stroke-miterlimit="10"/></g><g transform="translate(-22,-118) scale(1,1)"><path fill="#FFFFFF" stroke="none" d="M 433.0228859954206 409.46634940782184 L 426 401 L 424.9793172326964 411.9525433890275 L 432.49673795868375 422.01885810162383"/></g><g transform="translate(-22,-118) scale(1,1)"><path fill="none" stroke="#000000" d="M 433.0228859954206 409.46634940782184 L 426 401 L 424.9793172326964 411.9525433890275 L 432.49673795868375 422.01885810162383 L 433.0228859954206 409.46634940782184" stroke-miterlimit="10"/></g><g transform="translate(-22,-118) scale(1,1)"><g><path fill="none" stroke="none"/><text fill="#000000" stroke="none" font-family="Arial" font-size="13px" font-style="normal" font-weight="normal" text-decoration="none" x="455.5" y="492.5">0..*</text></g></g><g transform="translate(-22,-118) scale(1,1)"><g><path fill="none" stroke="none"/><text fill="#000000" stroke="none" font-family="Arial" font-size="13px" font-style="normal" font-weight="normal" text-decoration="none" x="440.5" y="423.5">1</text></g></g><g transform="translate(-22,-118) scale(1,1)"><path fill="none" stroke="#000000" d="M 193 454 L 323 401" stroke-miterlimit="10"/></g><g transform="translate(-22,-118) scale(1,1)"><path fill="#FFFFFF" stroke="none" d="M 315.1785519010301 408.7346589863497 L 323 401 L 312.0001711911064 400.9386308299331 L 302.62799667538525 409.3055090477276"/></g><g transform="translate(-22,-118) scale(1,1)"><path fill="none" stroke="#000000" d="M 315.1785519010301 408.7346589863497 L 323 401 L 312.0001711911064 400.9386308299331 L 302.62799667538525 409.3055090477276 L 315.1785519010301 408.7346589863497" stroke-miterlimit="10"/></g><g transform="translate(-22,-118) scale(1,1)"><g><path fill="none" stroke="none"/><text fill="#000000" stroke="none" font-family="Arial" font-size="13px" font-style="normal" font-weight="normal" text-decoration="none" x="213.5" y="463.5">1</text></g></g><g transform="translate(-22,-118) scale(1,1)"><g><path fill="none" stroke="none"/><text fill="#000000" stroke="none" font-family="Arial" font-size="13px" font-style="normal" font-weight="normal" text-decoration="none" x="303.5" y="426.5">1</text></g></g><g transform="translate(-22,-118) scale(1,1)"><path fill="none" stroke="#000000" d="M 132 342 L 123 441" stroke-miterlimit="10"/></g><g transform="translate(-22,-118) scale(1,1)"><path fill="#FFFFFF" stroke="none" d="M 119.72785521430106 430.49794931923185 L 123 441 L 128.11231548574403 431.2601729802721 L 124.99178641293541 419.09034945771054"/></g><g transform="translate(-22,-118) scale(1,1)"><path fill="none" stroke="#000000" d="M 119.72785521430106 430.49794931923185 L 123 441 L 128.11231548574403 431.2601729802721 L 124.99178641293541 419.09034945771054 L 119.72785521430106 430.49794931923185" stroke-miterlimit="10"/></g><g transform="translate(-22,-118) scale(1,1)"><g><path fill="none" stroke="none"/><text fill="#000000" stroke="none" font-family="Arial" font-size="13px" font-style="normal" font-weight="normal" text-decoration="none" x="113.5" y="368.5">1</text></g></g><g transform="translate(-22,-118) scale(1,1)"><g><path fill="none" stroke="none"/><text fill="#000000" stroke="none" font-family="Arial" font-size="13px" font-style="normal" font-weight="normal" text-decoration="none" x="108.5" y="424.5">1</text></g></g></g></svg>