<svg version="1.1" xmlns="http://www.w3.org/2000/svg" xmlns:xlink="http://www.w3.org/1999/xlink" width="434.45166015625" height="503"><defs/><g><text fill="#eeeeee" stroke="none" font-family="Arial" font-size="24px" font-style="normal" font-weight="normal" text-decoration="none" x="0" y="0">UNREGISTERED</text><text fill="#eeeeee" stroke="none" font-family="Arial" font-size="24px" font-style="normal" font-weight="normal" text-decoration="none" x="0" y="30">UNREGISTERED</text><text fill="#eeeeee" stroke="none" font-family="Arial" font-size="24px" font-style="normal" font-weight="normal" text-decoration="none" x="0" y="60">UNREGISTERED</text><text fill="#eeeeee" stroke="none" font-family="Arial" font-size="24px" font-style="normal" font-weight="normal" text-decoration="none" x="0" y="90">UNREGISTERED</text><text fill="#eeeeee" stroke="none" font-family="Arial" font-size="24px" font-style="normal" font-weight="normal" text-decoration="none" x="0" y="120">UNREGISTERED</text><text fill="#eeeeee" stroke="none" font-family="Arial" font-size="24px" font-style="normal" font-weight="normal" text-decoration="none" x="0" y="150">UNREGISTERED</text><text fill="#eeeeee" stroke="none" font-family="Arial" font-size="24px" font-style="normal" font-weight="normal" text-decoration="none" x="0" y="180">UNREGISTERED</text><text fill="#eeeeee" stroke="none" font-family="Arial" font-size="24px" font-style="normal" font-weight="normal" text-decoration="none" x="0" y="210">UNREGISTERED</text><text fill="#eeeeee" stroke="none" font-family="Arial" font-size="24px" font-style="normal" font-weight="normal" text-decoration="none" x="0" y="240">UNREGISTERED</text><text fill="#eeeeee" stroke="none" font-family="Arial" font-size="24px" font-style="normal" font-weight="normal" text-decoration="none" x="0" y="270">UNREGISTERED</text><text fill="#eeeeee" stroke="none" font-family="Arial" font-size="24px" font-style="normal" font-weight="normal" text-decoration="none" x="0" y="300">UNREGISTERED</text><text fill="#eeeeee" stroke="none" font-family="Arial" font-size="24px" font-style="normal" font-weight="normal" text-decoration="none" x="0" y="330">UNREGISTERED</text><text fill="#eeeeee" stroke="none" font-family="Arial" font-size="24px" font-style="normal" font-weight="normal" text-decoration="none" x="0" y="360">UNREGISTERED</text><text fill="#eeeeee" stroke="none" font-family="Arial" font-size="24px" font-style="normal" font-weight="normal" text-decoration="none" x="0" y="390">UNREGISTERED</text><text fill="#eeeeee" stroke="none" font-family="Arial" font-size="24px" font-style="normal" font-weight="normal" text-decoration="none" x="0" y="420">UNREGISTERED</text><text fill="#eeeeee" stroke="none" font-family="Arial" font-size="24px" font-style="normal" font-weight="normal" text-decoration="none" x="0" y="450">UNREGISTERED</text><text fill="#eeeeee" stroke="none" font-family="Arial" font-size="24px" font-style="normal" font-weight="normal" text-decoration="none" x="0" y="480">UNREGISTERED</text><text fill="#eeeeee" stroke="none" font-family="Arial" font-size="24px" font-style="normal" font-weight="normal" text-decoration="none" x="200" y="0">UNREGISTERED</text><text fill="#eeeeee" stroke="none" font-family="Arial" font-size="24px" font-style="normal" font-weight="normal" text-decoration="none" x="200" y="30">UNREGISTERED</text><text fill="#eeeeee" stroke="none" font-family="Arial" font-size="24px" font-style="normal" font-weight="normal" text-decoration="none" x="200" y="60">UNREGISTERED</text><text fill="#eeeeee" stroke="none" font-family="Arial" font-size="24px" font-style="normal" font-weight="normal" text-decoration="none" x="200" y="90">UNREGISTERED</text><text fill="#eeeeee" stroke="none" font-family="Arial" font-size="24px" font-style="normal" font-weight="normal" text-decoration="none" x="200" y="120">UNREGISTERED</text><text fill="#eeeeee" stroke="none" font-family="Arial" font-size="24px" font-style="normal" font-weight="normal" text-decoration="none" x="200" y="150">UNREGISTERED</text><text fill="#eeeeee" stroke="none" font-family="Arial" font-size="24px" font-style="normal" font-weight="normal" text-decoration="none" x="200" y="180">UNREGISTERED</text><text fill="#eeeeee" stroke="none" font-family="Arial" font-size="24px" font-style="normal" font-weight="normal" text-decoration="none" x="200" y="210">UNREGISTERED</text><text fill="#eeeeee" stroke="none" font-family="Arial" font-size="24px" font-style="normal" font-weight="normal" text-decoration="none" x="200" y="240">UNREGISTERED</text><text fill="#eeeeee" stroke="none" font-family="Arial" font-size="24px" font-style="normal" font-weight="normal" text-decoration="none" x="200" y="270">UNREGISTERED</text><text fill="#eeeeee" stroke="none" font-family="Arial" font-size="24px" font-style="normal" font-weight="normal" text-decoration="none" x="200" y="300">UNREGISTERED</text><text fill="#eeeeee" stroke="none" font-family="Arial" font-size="24px" font-style="normal" font-weight="normal" text-decoration="none" x="200" y="330">UNREGISTERED</text><text fill="#eeeeee" stroke="none" font-family="Arial" font-size="24px" font-style="normal" font-weight="normal" text-decoration="none" x="200" y="360">UNREGISTERED</text><text fill="#eeeeee" stroke="none" font-family="Arial" font-size="24px" font-style="normal" font-weight="normal" text-decoration="none" x="200" y="390">UNREGISTERED</text><text fill="#eeeeee" stroke="none" font-family="Arial" font-size="24px" font-style="normal" font-weight="normal" text-decoration="none" x="200" y="420">UNREGISTERED</text><text fill="#eeeeee" stroke="none" font-family="Arial" font-size="24px" font-style="normal" font-weight="normal" text-decoration="none" x="200" y="450">UNREGISTERED</text><text fill="#eeeeee" stroke="none" font-family="Arial" font-size="24px" font-style="normal" font-weight="normal" text-decoration="none" x="200" y="480">UNREGISTERED</text><text fill="#eeeeee" stroke="none" font-family="Arial" font-size="24px" font-style="normal" font-weight="normal" text-decoration="none" x="400" y="0">UNREGISTERED</text><text fill="#eeeeee" stroke="none" font-family="Arial" font-size="24px" font-style="normal" font-weight="normal" text-decoration="none" x="400" y="30">UNREGISTERED</text><text fill="#eeeeee" stroke="none" font-family="Arial" font-size="24px" font-style="normal" font-weight="normal" text-decoration="none" x="400" y="60">UNREGISTERED</text><text fill="#eeeeee" stroke="none" font-family="Arial" font-size="24px" font-style="normal" font-weight="normal" text-decoration="none" x="400" y="90">UNREGISTERED</text><text fill="#eeeeee" stroke="none" font-family="Arial" font-size="24px" font-style="normal" font-weight="normal" text-decoration="none" x="400" y="120">UNREGISTERED</text><text fill="#eeeeee" stroke="none" font-family="Arial" font-size="24px" font-style="normal" font-weight="normal" text-decoration="none" x="400" y="150">UNREGISTERED</text><text fill="#eeeeee" stroke="none" font-family="Arial" font-size="24px" font-style="normal" font-weight="normal" text-decoration="none" x="400" y="180">UNREGISTERED</text><text fill="#eeeeee" stroke="none" font-family="Arial" font-size="24px" font-style="normal" font-weight="normal" text-decoration="none" x="400" y="210">UNREGISTERED</text><text fill="#eeeeee" stroke="none" font-family="Arial" font-size="24px" font-style="normal" font-weight="normal" text-decoration="none" x="400" y="240">UNREGISTERED</text><text fill="#eeeeee" stroke="none" font-family="Arial" font-size="24px" font-style="normal" font-weight="normal" text-decoration="none" x="400" y="270">UNREGISTERED</text><text fill="#eeeeee" stroke="none" font-family="Arial" font-size="24px" font-style="normal" font-weight="normal" text-decoration="none" x="400" y="300">UNREGISTERED</text><text fill="#eeeeee" stroke="none" font-family="Arial" font-size="24px" font-style="normal" font-weight="normal" text-decoration="none" x="400" y="330">UNREGISTERED</text><text fill="#eeeeee" stroke="none" font-family="Arial" font-size="24px" font-style="normal" font-weight="normal" text-decoration="none" x="400" y="360">UNREGISTERED</text><text fill="#eeeeee" stroke="none" font-family="Arial" font-size="24px" font-style="normal" font-weight="normal" text-decoration="none" x="400" y="390">UNREGISTERED</text><text fill="#eeeeee" stroke="none" font-family="Arial" font-size="24px" font-style="normal" font-weight="normal" text-decoration="none" x="400" y="420">UNREGISTERED</text><text fill="#eeeeee" stroke="none" font-family="Arial" font-size="24px" font-style="normal" font-weight="normal" text-decoration="none" x="400" y="450">UNREGISTERED</text><text fill="#eeeeee" stroke="none" font-family="Arial" font-size="24px" font-style="normal" font-weight="normal" text-decoration="none" x="400" y="480">UNREGISTERED</text><g transform="translate(-448,-71) scale(1,1)"><rect fill="#C0C0C0" stroke="none" x="679" y="223" width="200.45166015625" height="72" opacity="0.2"/></g><g transform="translate(-448,-71) scale(1,1)"><rect fill="#ffffff" stroke="none" x="672" y="216" width="200.45166015625" height="72"/></g><g transform="translate(-448,-71) scale(1,1)"><path fill="none" stroke="#000000" d="M 672 216 L 872.45166015625 216 L 872.45166015625 288 L 672 288 L 672 216 Z Z" stroke-miterlimit="10"/></g><g transform="translate(-448,-71) scale(1,1)"><path fill="none" stroke="#000000" d="M 672 254 L 872.45166015625 254" stroke-miterlimit="10"/></g><g transform="translate(-448,-71) scale(1,1)"><path fill="none" stroke="#000000" d="M 672 264 L 872.45166015625 264" stroke-miterlimit="10"/></g><g transform="translate(-448,-71) scale(1,1)"><g><path fill="none" stroke="none"/><text fill="#000000" stroke="none" font-family="Arial" font-size="13px" font-style="normal" font-weight="normal" text-decoration="none" x="742.956787109375" y="233.5">«Canvas»</text></g></g><g transform="translate(-448,-71) scale(1,1)"><g><path fill="none" stroke="none"/><text fill="#000000" stroke="none" font-family="Arial" font-size="13px" font-style="normal" font-weight="bold" text-decoration="none" x="715.86181640625" y="248.5">GraphMenuCanvas</text></g></g><g transform="translate(-448,-71) scale(1,1)"><rect fill="#C0C0C0" stroke="none" x="465" y="88" width="200.45166015625" height="85" opacity="0.2"/></g><g transform="translate(-448,-71) scale(1,1)"><rect fill="#ffffff" stroke="none" x="458" y="81" width="200.45166015625" height="85"/></g><g transform="translate(-448,-71) scale(1,1)"><path fill="none" stroke="#000000" d="M 458 81 L 658.45166015625 81 L 658.45166015625 166 L 458 166 L 458 81 Z Z" stroke-miterlimit="10"/></g><g transform="translate(-448,-71) scale(1,1)"><path fill="none" stroke="#000000" d="M 458 119 L 658.45166015625 119" stroke-miterlimit="10"/></g><g transform="translate(-448,-71) scale(1,1)"><path fill="none" stroke="#000000" d="M 458 142 L 658.45166015625 142" stroke-miterlimit="10"/></g><g transform="translate(-448,-71) scale(1,1)"><g><path fill="none" stroke="none"/><text fill="#000000" stroke="none" font-family="Arial" font-size="13px" font-style="normal" font-weight="normal" text-decoration="none" x="514.509521484375" y="98.5">«GameObject»</text></g></g><g transform="translate(-448,-71) scale(1,1)"><g><path fill="none" stroke="none"/><text fill="#000000" stroke="none" font-family="Arial" font-size="13px" font-style="normal" font-weight="bold" text-decoration="none" x="518.486328125" y="113.5">GraphCreator</text></g></g><g transform="translate(-448,-71) scale(1,1)"><g><path fill="none" stroke="none"/><text fill="#000000" stroke="none" font-family="Arial" font-size="13px" font-style="normal" font-weight="normal" text-decoration="none" x="463" y="136.5">+GraphCreator: Script</text></g></g><g transform="translate(-448,-71) scale(1,1)"><rect fill="#C0C0C0" stroke="none" x="513" y="443" width="175.13720703125" height="128" opacity="0.2"/></g><g transform="translate(-448,-71) scale(1,1)"><rect fill="#ffffff" stroke="none" x="506" y="436" width="175.13720703125" height="128"/></g><g transform="translate(-448,-71) scale(1,1)"><path fill="none" stroke="#000000" d="M 506 436 L 681.13720703125 436 L 681.13720703125 564 L 506 564 L 506 436 Z Z" stroke-miterlimit="10"/></g><g transform="translate(-448,-71) scale(1,1)"><path fill="none" stroke="#000000" d="M 506 474 L 681.13720703125 474" stroke-miterlimit="10"/></g><g transform="translate(-448,-71) scale(1,1)"><path fill="none" stroke="#000000" d="M 506 527 L 681.13720703125 527" stroke-miterlimit="10"/></g><g transform="translate(-448,-71) scale(1,1)"><g><path fill="none" stroke="none"/><text fill="#000000" stroke="none" font-family="Arial" font-size="13px" font-style="normal" font-weight="normal" text-decoration="none" x="569.7236328125" y="453.5">«Script»</text></g></g><g transform="translate(-448,-71) scale(1,1)"><g><path fill="none" stroke="none"/><text fill="#000000" stroke="none" font-family="Arial" font-size="13px" font-style="normal" font-weight="bold" text-decoration="none" x="515.536865234375" y="468.5">Graph Creator Menu Script</text></g></g><g transform="translate(-448,-71) scale(1,1)"><g><path fill="none" stroke="none"/><text fill="#000000" stroke="none" font-family="Arial" font-size="13px" font-style="normal" font-weight="normal" text-decoration="none" x="511" y="491.5">+gCreator: GraphCreator</text></g></g><g transform="translate(-448,-71) scale(1,1)"><g><path fill="none" stroke="none"/><text fill="#000000" stroke="none" font-family="Arial" font-size="13px" font-style="normal" font-weight="normal" text-decoration="none" x="511" y="506.5">+xaxisDropdown: Dropdown</text></g></g><g transform="translate(-448,-71) scale(1,1)"><g><path fill="none" stroke="none"/><text fill="#000000" stroke="none" font-family="Arial" font-size="13px" font-style="normal" font-weight="normal" text-decoration="none" x="511" y="521.5">+yaxisDropdown: Dropdown</text></g></g><g transform="translate(-448,-71) scale(1,1)"><g><path fill="none" stroke="none"/><text fill="#000000" stroke="none" font-family="Arial" font-size="13px" font-style="normal" font-weight="normal" text-decoration="none" x="511" y="544.5">+Start()</text></g></g><g transform="translate(-448,-71) scale(1,1)"><path fill="none" stroke="#000000" d="M 640 435 L 745 289" stroke-miterlimit="10"/></g><g transform="translate(-448,-71) scale(1,1)"><path fill="#FFFFFF" stroke="none" d="M 742.4838676571906 299.7083648627355 L 745 289 L 735.6488683481766 294.7927831678967 L 732.1549660133987 306.8607139242265"/></g><g transform="translate(-448,-71) scale(1,1)"><path fill="none" stroke="#000000" d="M 742.4838676571906 299.7083648627355 L 745 289 L 735.6488683481766 294.7927831678967 L 732.1549660133987 306.8607139242265 L 742.4838676571906 299.7083648627355" stroke-miterlimit="10"/></g><g transform="translate(-448,-71) scale(1,1)"><path fill="none" stroke="#000000" d="M 711 215 L 631 167" stroke-miterlimit="10"/></g><g transform="translate(-448,-71) scale(1,1)"><path fill="#FFFFFF" stroke="none" d="M 641.8802008145965 168.61902138159263 L 631 167 L 637.5486427788625 175.83828477448273 L 649.8648443656759 178.3189066194056"/></g><g transform="translate(-448,-71) scale(1,1)"><path fill="none" stroke="#000000" d="M 641.8802008145965 168.61902138159263 L 631 167 L 637.5486427788625 175.83828477448273 L 649.8648443656759 178.3189066194056 L 641.8802008145965 168.61902138159263" stroke-miterlimit="10"/></g><g transform="translate(-448,-71) scale(1,1)"><path fill="none" stroke="#000000" d="M 587 435 L 562 167" stroke-miterlimit="10"/></g><g transform="translate(-448,-71) scale(1,1)"><path fill="none" stroke="#000000" d="M 567.1352339084099 176.72776298569804 L 562 167 L 558.7525915466532 177.50972589257833" stroke-miterlimit="10"/></g><g transform="translate(-448,-71) scale(1,1)"><g><path fill="none" stroke="none"/><text fill="#000000" stroke="none" font-family="Arial" font-size="13px" font-style="normal" font-weight="normal" text-decoration="none" x="541.5" y="308.5">+uses</text></g></g></g></svg>