<svg version="1.1" xmlns="http://www.w3.org/2000/svg" xmlns:xlink="http://www.w3.org/1999/xlink" width="545.31982421875" height="509"><defs/><g><text fill="#eeeeee" stroke="none" font-family="Arial" font-size="24px" font-style="normal" font-weight="normal" text-decoration="none" x="0" y="0">UNREGISTERED</text><text fill="#eeeeee" stroke="none" font-family="Arial" font-size="24px" font-style="normal" font-weight="normal" text-decoration="none" x="0" y="30">UNREGISTERED</text><text fill="#eeeeee" stroke="none" font-family="Arial" font-size="24px" font-style="normal" font-weight="normal" text-decoration="none" x="0" y="60">UNREGISTERED</text><text fill="#eeeeee" stroke="none" font-family="Arial" font-size="24px" font-style="normal" font-weight="normal" text-decoration="none" x="0" y="90">UNREGISTERED</text><text fill="#eeeeee" stroke="none" font-family="Arial" font-size="24px" font-style="normal" font-weight="normal" text-decoration="none" x="0" y="120">UNREGISTERED</text><text fill="#eeeeee" stroke="none" font-family="Arial" font-size="24px" font-style="normal" font-weight="normal" text-decoration="none" x="0" y="150">UNREGISTERED</text><text fill="#eeeeee" stroke="none" font-family="Arial" font-size="24px" font-style="normal" font-weight="normal" text-decoration="none" x="0" y="180">UNREGISTERED</text><text fill="#eeeeee" stroke="none" font-family="Arial" font-size="24px" font-style="normal" font-weight="normal" text-decoration="none" x="0" y="210">UNREGISTERED</text><text fill="#eeeeee" stroke="none" font-family="Arial" font-size="24px" font-style="normal" font-weight="normal" text-decoration="none" x="0" y="240">UNREGISTERED</text><text fill="#eeeeee" stroke="none" font-family="Arial" font-size="24px" font-style="normal" font-weight="normal" text-decoration="none" x="0" y="270">UNREGISTERED</text><text fill="#eeeeee" stroke="none" font-family="Arial" font-size="24px" font-style="normal" font-weight="normal" text-decoration="none" x="0" y="300">UNREGISTERED</text><text fill="#eeeeee" stroke="none" font-family="Arial" font-size="24px" font-style="normal" font-weight="normal" text-decoration="none" x="0" y="330">UNREGISTERED</text><text fill="#eeeeee" stroke="none" font-family="Arial" font-size="24px" font-style="normal" font-weight="normal" text-decoration="none" x="0" y="360">UNREGISTERED</text><text fill="#eeeeee" stroke="none" font-family="Arial" font-size="24px" font-style="normal" font-weight="normal" text-decoration="none" x="0" y="390">UNREGISTERED</text><text fill="#eeeeee" stroke="none" font-family="Arial" font-size="24px" font-style="normal" font-weight="normal" text-decoration="none" x="0" y="420">UNREGISTERED</text><text fill="#eeeeee" stroke="none" font-family="Arial" font-size="24px" font-style="normal" font-weight="normal" text-decoration="none" x="0" y="450">UNREGISTERED</text><text fill="#eeeeee" stroke="none" font-family="Arial" font-size="24px" font-style="normal" font-weight="normal" text-decoration="none" x="0" y="480">UNREGISTERED</text><text fill="#eeeeee" stroke="none" font-family="Arial" font-size="24px" font-style="normal" font-weight="normal" text-decoration="none" x="200" y="0">UNREGISTERED</text><text fill="#eeeeee" stroke="none" font-family="Arial" font-size="24px" font-style="normal" font-weight="normal" text-decoration="none" x="200" y="30">UNREGISTERED</text><text fill="#eeeeee" stroke="none" font-family="Arial" font-size="24px" font-style="normal" font-weight="normal" text-decoration="none" x="200" y="60">UNREGISTERED</text><text fill="#eeeeee" stroke="none" font-family="Arial" font-size="24px" font-style="normal" font-weight="normal" text-decoration="none" x="200" y="90">UNREGISTERED</text><text fill="#eeeeee" stroke="none" font-family="Arial" font-size="24px" font-style="normal" font-weight="normal" text-decoration="none" x="200" y="120">UNREGISTERED</text><text fill="#eeeeee" stroke="none" font-family="Arial" font-size="24px" font-style="normal" font-weight="normal" text-decoration="none" x="200" y="150">UNREGISTERED</text><text fill="#eeeeee" stroke="none" font-family="Arial" font-size="24px" font-style="normal" font-weight="normal" text-decoration="none" x="200" y="180">UNREGISTERED</text><text fill="#eeeeee" stroke="none" font-family="Arial" font-size="24px" font-style="normal" font-weight="normal" text-decoration="none" x="200" y="210">UNREGISTERED</text><text fill="#eeeeee" stroke="none" font-family="Arial" font-size="24px" font-style="normal" font-weight="normal" text-decoration="none" x="200" y="240">UNREGISTERED</text><text fill="#eeeeee" stroke="none" font-family="Arial" font-size="24px" font-style="normal" font-weight="normal" text-decoration="none" x="200" y="270">UNREGISTERED</text><text fill="#eeeeee" stroke="none" font-family="Arial" font-size="24px" font-style="normal" font-weight="normal" text-decoration="none" x="200" y="300">UNREGISTERED</text><text fill="#eeeeee" stroke="none" font-family="Arial" font-size="24px" font-style="normal" font-weight="normal" text-decoration="none" x="200" y="330">UNREGISTERED</text><text fill="#eeeeee" stroke="none" font-family="Arial" font-size="24px" font-style="normal" font-weight="normal" text-decoration="none" x="200" y="360">UNREGISTERED</text><text fill="#eeeeee" stroke="none" font-family="Arial" font-size="24px" font-style="normal" font-weight="normal" text-decoration="none" x="200" y="390">UNREGISTERED</text><text fill="#eeeeee" stroke="none" font-family="Arial" font-size="24px" font-style="normal" font-weight="normal" text-decoration="none" x="200" y="420">UNREGISTERED</text><text fill="#eeeeee" stroke="none" font-family="Arial" font-size="24px" font-style="normal" font-weight="normal" text-decoration="none" x="200" y="450">UNREGISTERED</text><text fill="#eeeeee" stroke="none" font-family="Arial" font-size="24px" font-style="normal" font-weight="normal" text-decoration="none" x="200" y="480">UNREGISTERED</text><text fill="#eeeeee" stroke="none" font-family="Arial" font-size="24px" font-style="normal" font-weight="normal" text-decoration="none" x="400" y="0">UNREGISTERED</text><text fill="#eeeeee" stroke="none" font-family="Arial" font-size="24px" font-style="normal" font-weight="normal" text-decoration="none" x="400" y="30">UNREGISTERED</text><text fill="#eeeeee" stroke="none" font-family="Arial" font-size="24px" font-style="normal" font-weight="normal" text-decoration="none" x="400" y="60">UNREGISTERED</text><text fill="#eeeeee" stroke="none" font-family="Arial" font-size="24px" font-style="normal" font-weight="normal" text-decoration="none" x="400" y="90">UNREGISTERED</text><text fill="#eeeeee" stroke="none" font-family="Arial" font-size="24px" font-style="normal" font-weight="normal" text-decoration="none" x="400" y="120">UNREGISTERED</text><text fill="#eeeeee" stroke="none" font-family="Arial" font-size="24px" font-style="normal" font-weight="normal" text-decoration="none" x="400" y="150">UNREGISTERED</text><text fill="#eeeeee" stroke="none" font-family="Arial" font-size="24px" font-style="normal" font-weight="normal" text-decoration="none" x="400" y="180">UNREGISTERED</text><text fill="#eeeeee" stroke="none" font-family="Arial" font-size="24px" font-style="normal" font-weight="normal" text-decoration="none" x="400" y="210">UNREGISTERED</text><text fill="#eeeeee" stroke="none" font-family="Arial" font-size="24px" font-style="normal" font-weight="normal" text-decoration="none" x="400" y="240">UNREGISTERED</text><text fill="#eeeeee" stroke="none" font-family="Arial" font-size="24px" font-style="normal" font-weight="normal" text-decoration="none" x="400" y="270">UNREGISTERED</text><text fill="#eeeeee" stroke="none" font-family="Arial" font-size="24px" font-style="normal" font-weight="normal" text-decoration="none" x="400" y="300">UNREGISTERED</text><text fill="#eeeeee" stroke="none" font-family="Arial" font-size="24px" font-style="normal" font-weight="normal" text-decoration="none" x="400" y="330">UNREGISTERED</text><text fill="#eeeeee" stroke="none" font-family="Arial" font-size="24px" font-style="normal" font-weight="normal" text-decoration="none" x="400" y="360">UNREGISTERED</text><text fill="#eeeeee" stroke="none" font-family="Arial" font-size="24px" font-style="normal" font-weight="normal" text-decoration="none" x="400" y="390">UNREGISTERED</text><text fill="#eeeeee" stroke="none" font-family="Arial" font-size="24px" font-style="normal" font-weight="normal" text-decoration="none" x="400" y="420">UNREGISTERED</text><text fill="#eeeeee" stroke="none" font-family="Arial" font-size="24px" font-style="normal" font-weight="normal" text-decoration="none" x="400" y="450">UNREGISTERED</text><text fill="#eeeeee" stroke="none" font-family="Arial" font-size="24px" font-style="normal" font-weight="normal" text-decoration="none" x="400" y="480">UNREGISTERED</text><g transform="translate(-22,-77) scale(1,1)"><rect fill="#C0C0C0" stroke="none" x="151" y="94" width="76.88818359375" height="59" opacity="0.2"/></g><g transform="translate(-22,-77) scale(1,1)"><rect fill="#ffffff" stroke="none" x="144" y="87" width="76.88818359375" height="59"/></g><g transform="translate(-22,-77) scale(1,1)"><path fill="none" stroke="#000000" d="M 144 87 L 220.88818359375 87 L 220.88818359375 146 L 144 146 L 144 87 Z Z" stroke-miterlimit="10"/></g><g transform="translate(-22,-77) scale(1,1)"><path fill="none" stroke="#000000" d="M 144 112 L 220.88818359375 112" stroke-miterlimit="10"/></g><g transform="translate(-22,-77) scale(1,1)"><path fill="none" stroke="#000000" d="M 144 122 L 220.88818359375 122" stroke-miterlimit="10"/></g><g transform="translate(-22,-77) scale(1,1)"><g><path fill="none" stroke="none"/><text fill="#000000" stroke="none" font-family="Arial" font-size="13px" font-style="normal" font-weight="bold" text-decoration="none" x="163.658203125" y="106.5">Object</text></g></g><g transform="translate(-22,-77) scale(1,1)"><rect fill="#C0C0C0" stroke="none" x="113" y="255" width="85.58447265625" height="59" opacity="0.2"/></g><g transform="translate(-22,-77) scale(1,1)"><rect fill="#ffffff" stroke="none" x="106" y="248" width="85.58447265625" height="59"/></g><g transform="translate(-22,-77) scale(1,1)"><path fill="none" stroke="#000000" d="M 106 248 L 191.58447265625 248 L 191.58447265625 307 L 106 307 L 106 248 Z Z" stroke-miterlimit="10"/></g><g transform="translate(-22,-77) scale(1,1)"><path fill="none" stroke="#000000" d="M 106 273 L 191.58447265625 273" stroke-miterlimit="10"/></g><g transform="translate(-22,-77) scale(1,1)"><path fill="none" stroke="#000000" d="M 106 283 L 191.58447265625 283" stroke-miterlimit="10"/></g><g transform="translate(-22,-77) scale(1,1)"><g><path fill="none" stroke="none"/><text fill="#000000" stroke="none" font-family="Arial" font-size="13px" font-style="normal" font-weight="bold" text-decoration="none" x="112.305908203125" y="267.5">GameObject</text></g></g><g transform="translate(-22,-77) scale(1,1)"><path fill="none" stroke="#000000" d="M 154 247 L 175 147" stroke-miterlimit="10"/></g><g transform="translate(-22,-77) scale(1,1)"><path fill="#FFFFFF" stroke="none" d="M 179.06210888248427 168.62173146227752 L 175 147 L 162.58347179875176 165.16121767469372"/></g><g transform="translate(-22,-77) scale(1,1)"><path fill="none" stroke="#000000" d="M 179.06210888248427 168.62173146227752 L 175 147 L 162.58347179875176 165.16121767469372 L 179.06210888248427 168.62173146227752" stroke-miterlimit="10"/></g><g transform="translate(-22,-77) scale(1,1)"><rect fill="#C0C0C0" stroke="none" x="271" y="263" width="81.2109375" height="59" opacity="0.2"/></g><g transform="translate(-22,-77) scale(1,1)"><rect fill="#ffffff" stroke="none" x="264" y="256" width="81.2109375" height="59"/></g><g transform="translate(-22,-77) scale(1,1)"><path fill="none" stroke="#000000" d="M 264 256 L 345.2109375 256 L 345.2109375 315 L 264 315 L 264 256 Z Z" stroke-miterlimit="10"/></g><g transform="translate(-22,-77) scale(1,1)"><path fill="none" stroke="#000000" d="M 264 281 L 345.2109375 281" stroke-miterlimit="10"/></g><g transform="translate(-22,-77) scale(1,1)"><path fill="none" stroke="#000000" d="M 264 291 L 345.2109375 291" stroke-miterlimit="10"/></g><g transform="translate(-22,-77) scale(1,1)"><g><path fill="none" stroke="none"/><text fill="#000000" stroke="none" font-family="Arial" font-size="13px" font-style="normal" font-weight="bold" text-decoration="none" x="271.0009765625" y="275.5">Component</text></g></g><g transform="translate(-22,-77) scale(1,1)"><path fill="none" stroke="#000000" d="M 263 283 L 193 279" stroke-miterlimit="10"/></g><g transform="translate(-22,-77) scale(1,1)"><path fill="#000000" stroke="none" d="M 203.38627536517208 275.3771166125834 L 193 279 L 202.90597115267437 283.78244033129357 L 214.96416935732748 280.2550953918473"/></g><g transform="translate(-22,-77) scale(1,1)"><path fill="none" stroke="#000000" d="M 203.38627536517208 275.3771166125834 L 193 279 L 202.90597115267437 283.78244033129357 L 214.96416935732748 280.2550953918473 L 203.38627536517208 275.3771166125834" stroke-miterlimit="10"/></g><g transform="translate(-22,-77) scale(1,1)"><path fill="none" stroke="#000000" d="M 282 255 L 204 147" stroke-miterlimit="10"/></g><g transform="translate(-22,-77) scale(1,1)"><path fill="#FFFFFF" stroke="none" d="M 222.7254374746263 158.5480730593403 L 204 147 L 209.07516304909572 168.40660458889016"/></g><g transform="translate(-22,-77) scale(1,1)"><path fill="none" stroke="#000000" d="M 222.7254374746263 158.5480730593403 L 204 147 L 209.07516304909572 168.40660458889016 L 222.7254374746263 158.5480730593403" stroke-miterlimit="10"/></g><g transform="translate(-22,-77) scale(1,1)"><rect fill="#C0C0C0" stroke="none" x="295" y="367" width="90.6689453125" height="72" opacity="0.2"/></g><g transform="translate(-22,-77) scale(1,1)"><rect fill="#ffffff" stroke="none" x="288" y="360" width="90.6689453125" height="72"/></g><g transform="translate(-22,-77) scale(1,1)"><path fill="none" stroke="#000000" d="M 288 360 L 378.6689453125 360 L 378.6689453125 432 L 288 432 L 288 360 Z Z" stroke-miterlimit="10"/></g><g transform="translate(-22,-77) scale(1,1)"><path fill="none" stroke="#000000" d="M 288 398 L 378.6689453125 398" stroke-miterlimit="10"/></g><g transform="translate(-22,-77) scale(1,1)"><path fill="none" stroke="#000000" d="M 288 408 L 378.6689453125 408" stroke-miterlimit="10"/></g><g transform="translate(-22,-77) scale(1,1)"><g><path fill="none" stroke="none"/><text fill="#000000" stroke="none" font-family="Arial" font-size="13px" font-style="normal" font-weight="normal" text-decoration="none" x="292.5" y="377.5">«Component»</text></g></g><g transform="translate(-22,-77) scale(1,1)"><g><path fill="none" stroke="none"/><text fill="#000000" stroke="none" font-family="Arial" font-size="13px" font-style="normal" font-weight="bold" text-decoration="none" x="306.236328125" y="392.5">Renderer</text></g></g><g transform="translate(-22,-77) scale(1,1)"><path fill="none" stroke="#000000" d="M 323 359 L 312 316" stroke-miterlimit="10"/></g><g transform="translate(-22,-77) scale(1,1)"><path fill="#FFFFFF" stroke="none" d="M 325.1936818501128 333.6047368409188 L 312 316 L 308.88091310381435 337.777770706251"/></g><g transform="translate(-22,-77) scale(1,1)"><path fill="none" stroke="#000000" d="M 325.1936818501128 333.6047368409188 L 312 316 L 308.88091310381435 337.777770706251 L 325.1936818501128 333.6047368409188" stroke-miterlimit="10"/></g><g transform="translate(-22,-77) scale(1,1)"><rect fill="#C0C0C0" stroke="none" x="255" y="487" width="99.30810546875" height="72" opacity="0.2"/></g><g transform="translate(-22,-77) scale(1,1)"><rect fill="#ffffff" stroke="none" x="248" y="480" width="99.30810546875" height="72"/></g><g transform="translate(-22,-77) scale(1,1)"><path fill="none" stroke="#000000" d="M 248 480 L 347.30810546875 480 L 347.30810546875 552 L 248 552 L 248 480 Z Z" stroke-miterlimit="10"/></g><g transform="translate(-22,-77) scale(1,1)"><path fill="none" stroke="#000000" d="M 248 518 L 347.30810546875 518" stroke-miterlimit="10"/></g><g transform="translate(-22,-77) scale(1,1)"><path fill="none" stroke="#000000" d="M 248 528 L 347.30810546875 528" stroke-miterlimit="10"/></g><g transform="translate(-22,-77) scale(1,1)"><g><path fill="none" stroke="none"/><text fill="#000000" stroke="none" font-family="Arial" font-size="13px" font-style="normal" font-weight="normal" text-decoration="none" x="256.819580078125" y="497.5">«Component»</text></g></g><g transform="translate(-22,-77) scale(1,1)"><g><path fill="none" stroke="none"/><text fill="#000000" stroke="none" font-family="Arial" font-size="13px" font-style="normal" font-weight="bold" text-decoration="none" x="254.661376953125" y="512.5">MeshRenderer</text></g></g><g transform="translate(-22,-77) scale(1,1)"><path fill="none" stroke="#000000" d="M 308 479 L 322 433" stroke-miterlimit="10"/></g><g transform="translate(-22,-77) scale(1,1)"><path fill="#FFFFFF" stroke="none" d="M 324.13630970832395 454.8960311661753 L 322 433 L 308.02776696279597 449.9934312001451"/></g><g transform="translate(-22,-77) scale(1,1)"><path fill="none" stroke="#000000" d="M 324.13630970832395 454.8960311661753 L 322 433 L 308.02776696279597 449.9934312001451 L 324.13630970832395 454.8960311661753" stroke-miterlimit="10"/></g><g transform="translate(-22,-77) scale(1,1)"><rect fill="#C0C0C0" stroke="none" x="448" y="333" width="116.31982421875" height="115" opacity="0.2"/></g><g transform="translate(-22,-77) scale(1,1)"><rect fill="#ffffff" stroke="none" x="441" y="326" width="116.31982421875" height="115"/></g><g transform="translate(-22,-77) scale(1,1)"><path fill="none" stroke="#000000" d="M 441 326 L 557.31982421875 326 L 557.31982421875 441 L 441 441 L 441 326 Z Z" stroke-miterlimit="10"/></g><g transform="translate(-22,-77) scale(1,1)"><path fill="none" stroke="#000000" d="M 441 364 L 557.31982421875 364" stroke-miterlimit="10"/></g><g transform="translate(-22,-77) scale(1,1)"><path fill="none" stroke="#000000" d="M 441 417 L 557.31982421875 417" stroke-miterlimit="10"/></g><g transform="translate(-22,-77) scale(1,1)"><g><path fill="none" stroke="none"/><text fill="#000000" stroke="none" font-family="Arial" font-size="13px" font-style="normal" font-weight="normal" text-decoration="none" x="458.325439453125" y="343.5">«Component»</text></g></g><g transform="translate(-22,-77) scale(1,1)"><g><path fill="none" stroke="none"/><text fill="#000000" stroke="none" font-family="Arial" font-size="13px" font-style="normal" font-weight="bold" text-decoration="none" x="469.7861328125" y="358.5">Transform</text></g></g><g transform="translate(-22,-77) scale(1,1)"><g><path fill="none" stroke="none"/><text fill="#000000" stroke="none" font-family="Arial" font-size="13px" font-style="normal" font-weight="normal" text-decoration="none" x="446" y="381.5">+Position: Vector3</text></g></g><g transform="translate(-22,-77) scale(1,1)"><g><path fill="none" stroke="none"/><text fill="#000000" stroke="none" font-family="Arial" font-size="13px" font-style="normal" font-weight="normal" text-decoration="none" x="446" y="396.5">+Rotation: Vector3</text></g></g><g transform="translate(-22,-77) scale(1,1)"><g><path fill="none" stroke="none"/><text fill="#000000" stroke="none" font-family="Arial" font-size="13px" font-style="normal" font-weight="normal" text-decoration="none" x="446" y="411.5">+Scale: Vector3</text></g></g><g transform="translate(-22,-77) scale(1,1)"><path fill="none" stroke="#000000" d="M 308 479 L 322 433" stroke-miterlimit="10"/></g><g transform="translate(-22,-77) scale(1,1)"><path fill="#FFFFFF" stroke="none" d="M 324.13630970832395 454.8960311661753 L 322 433 L 308.02776696279597 449.9934312001451"/></g><g transform="translate(-22,-77) scale(1,1)"><path fill="none" stroke="#000000" d="M 324.13630970832395 454.8960311661753 L 322 433 L 308.02776696279597 449.9934312001451 L 324.13630970832395 454.8960311661753" stroke-miterlimit="10"/></g><g transform="translate(-22,-77) scale(1,1)"><path fill="none" stroke="#000000" d="M 440 353 L 346 306" stroke-miterlimit="10"/></g><g transform="translate(-22,-77) scale(1,1)"><path fill="#FFFFFF" stroke="none" d="M 367.9446525938781 307.55955844199497 L 346 306 L 360.41443830992284 322.61998700990557"/></g><g transform="translate(-22,-77) scale(1,1)"><path fill="none" stroke="#000000" d="M 367.9446525938781 307.55955844199497 L 346 306 L 360.41443830992284 322.61998700990557 L 367.9446525938781 307.55955844199497" stroke-miterlimit="10"/></g><g transform="translate(-22,-77) scale(1,1)"><rect fill="#C0C0C0" stroke="none" x="439" y="191" width="90.6689453125" height="72" opacity="0.2"/></g><g transform="translate(-22,-77) scale(1,1)"><rect fill="#ffffff" stroke="none" x="432" y="184" width="90.6689453125" height="72"/></g><g transform="translate(-22,-77) scale(1,1)"><path fill="none" stroke="#000000" d="M 432 184 L 522.6689453125 184 L 522.6689453125 256 L 432 256 L 432 184 Z Z" stroke-miterlimit="10"/></g><g transform="translate(-22,-77) scale(1,1)"><path fill="none" stroke="#000000" d="M 432 222 L 522.6689453125 222" stroke-miterlimit="10"/></g><g transform="translate(-22,-77) scale(1,1)"><path fill="none" stroke="#000000" d="M 432 232 L 522.6689453125 232" stroke-miterlimit="10"/></g><g transform="translate(-22,-77) scale(1,1)"><g><path fill="none" stroke="none"/><text fill="#000000" stroke="none" font-family="Arial" font-size="13px" font-style="normal" font-weight="normal" text-decoration="none" x="436.5" y="201.5">«Component»</text></g></g><g transform="translate(-22,-77) scale(1,1)"><g><path fill="none" stroke="none"/><text fill="#000000" stroke="none" font-family="Arial" font-size="13px" font-style="normal" font-weight="bold" text-decoration="none" x="454.21630859375" y="216.5">Camera</text></g></g><g transform="translate(-22,-77) scale(1,1)"><path fill="none" stroke="#000000" d="M 431 237 L 346 269" stroke-miterlimit="10"/></g><g transform="translate(-22,-77) scale(1,1)"><path fill="#FFFFFF" stroke="none" d="M 362.0557286499219 253.95960181643858 L 346 269 L 367.988282152593 269.71794705790876"/></g><g transform="translate(-22,-77) scale(1,1)"><path fill="none" stroke="#000000" d="M 362.0557286499219 253.95960181643858 L 346 269 L 367.988282152593 269.71794705790876 L 362.0557286499219 253.95960181643858" stroke-miterlimit="10"/></g><g transform="translate(-22,-77) scale(1,1)"><rect fill="#C0C0C0" stroke="none" x="39" y="367" width="90.6689453125" height="72" opacity="0.2"/></g><g transform="translate(-22,-77) scale(1,1)"><rect fill="#ffffff" stroke="none" x="32" y="360" width="90.6689453125" height="72"/></g><g transform="translate(-22,-77) scale(1,1)"><path fill="none" stroke="#000000" d="M 32 360 L 122.6689453125 360 L 122.6689453125 432 L 32 432 L 32 360 Z Z" stroke-miterlimit="10"/></g><g transform="translate(-22,-77) scale(1,1)"><path fill="none" stroke="#000000" d="M 32 398 L 122.6689453125 398" stroke-miterlimit="10"/></g><g transform="translate(-22,-77) scale(1,1)"><path fill="none" stroke="#000000" d="M 32 408 L 122.6689453125 408" stroke-miterlimit="10"/></g><g transform="translate(-22,-77) scale(1,1)"><g><path fill="none" stroke="none"/><text fill="#000000" stroke="none" font-family="Arial" font-size="13px" font-style="normal" font-weight="normal" text-decoration="none" x="36.5" y="377.5">«Component»</text></g></g><g transform="translate(-22,-77) scale(1,1)"><g><path fill="none" stroke="none"/><text fill="#000000" stroke="none" font-family="Arial" font-size="13px" font-style="normal" font-weight="bold" text-decoration="none" x="48.0654296875" y="392.5">Behaviour</text></g></g><g transform="translate(-22,-77) scale(1,1)"><rect fill="#C0C0C0" stroke="none" x="55" y="511" width="107.2236328125" height="72" opacity="0.2"/></g><g transform="translate(-22,-77) scale(1,1)"><rect fill="#ffffff" stroke="none" x="48" y="504" width="107.2236328125" height="72"/></g><g transform="translate(-22,-77) scale(1,1)"><path fill="none" stroke="#000000" d="M 48 504 L 155.2236328125 504 L 155.2236328125 576 L 48 576 L 48 504 Z Z" stroke-miterlimit="10"/></g><g transform="translate(-22,-77) scale(1,1)"><path fill="none" stroke="#000000" d="M 48 542 L 155.2236328125 542" stroke-miterlimit="10"/></g><g transform="translate(-22,-77) scale(1,1)"><path fill="none" stroke="#000000" d="M 48 552 L 155.2236328125 552" stroke-miterlimit="10"/></g><g transform="translate(-22,-77) scale(1,1)"><g><path fill="none" stroke="none"/><text fill="#000000" stroke="none" font-family="Arial" font-size="13px" font-style="normal" font-weight="normal" text-decoration="none" x="60.77734375" y="521.5">«Component»</text></g></g><g transform="translate(-22,-77) scale(1,1)"><g><path fill="none" stroke="none"/><text fill="#000000" stroke="none" font-family="Arial" font-size="13px" font-style="normal" font-weight="bold" text-decoration="none" x="56.083251953125" y="536.5">MonoBehaviour</text></g></g><g transform="translate(-22,-77) scale(1,1)"><path fill="none" stroke="#000000" d="M 124 373 L 263 305" stroke-miterlimit="10"/></g><g transform="translate(-22,-77) scale(1,1)"><path fill="#FFFFFF" stroke="none" d="M 248.4420049660818 321.49438633573294 L 263 305 L 241.0426505615289 306.3692354205439"/></g><g transform="translate(-22,-77) scale(1,1)"><path fill="none" stroke="#000000" d="M 248.4420049660818 321.49438633573294 L 263 305 L 241.0426505615289 306.3692354205439 L 248.4420049660818 321.49438633573294" stroke-miterlimit="10"/></g><g transform="translate(-22,-77) scale(1,1)"><path fill="none" stroke="#000000" d="M 95 503 L 83 433" stroke-miterlimit="10"/></g><g transform="translate(-22,-77) scale(1,1)"><path fill="#FFFFFF" stroke="none" d="M 94.73223739607242 451.61060465654464 L 83 433 L 78.13625986662858 454.45562937587783"/></g><g transform="translate(-22,-77) scale(1,1)"><path fill="none" stroke="#000000" d="M 94.73223739607242 451.61060465654464 L 83 433 L 78.13625986662858 454.45562937587783 L 94.73223739607242 451.61060465654464" stroke-miterlimit="10"/></g><g transform="translate(-22,-77) scale(1,1)"><rect fill="#C0C0C0" stroke="none" x="332" y="101" width="90.6689453125" height="72" opacity="0.2"/></g><g transform="translate(-22,-77) scale(1,1)"><rect fill="#ffffff" stroke="none" x="325" y="94" width="90.6689453125" height="72"/></g><g transform="translate(-22,-77) scale(1,1)"><path fill="none" stroke="#000000" d="M 325 94 L 415.6689453125 94 L 415.6689453125 166 L 325 166 L 325 94 Z Z" stroke-miterlimit="10"/></g><g transform="translate(-22,-77) scale(1,1)"><path fill="none" stroke="#000000" d="M 325 132 L 415.6689453125 132" stroke-miterlimit="10"/></g><g transform="translate(-22,-77) scale(1,1)"><path fill="none" stroke="#000000" d="M 325 142 L 415.6689453125 142" stroke-miterlimit="10"/></g><g transform="translate(-22,-77) scale(1,1)"><g><path fill="none" stroke="none"/><text fill="#000000" stroke="none" font-family="Arial" font-size="13px" font-style="normal" font-weight="normal" text-decoration="none" x="329.5" y="111.5">«Component»</text></g></g><g transform="translate(-22,-77) scale(1,1)"><g><path fill="none" stroke="none"/><text fill="#000000" stroke="none" font-family="Arial" font-size="13px" font-style="normal" font-weight="bold" text-decoration="none" x="341.42724609375" y="126.5">Rigidbody</text></g></g><g transform="translate(-22,-77) scale(1,1)"><path fill="none" stroke="#000000" d="M 354 167 L 317 255" stroke-miterlimit="10"/></g><g transform="translate(-22,-77) scale(1,1)"><path fill="#FFFFFF" stroke="none" d="M 317.1169345958606 233.0003107680974 L 317 255 L 332.6388146855633 239.52655580581333"/></g><g transform="translate(-22,-77) scale(1,1)"><path fill="none" stroke="#000000" d="M 317.1169345958606 233.0003107680974 L 317 255 L 332.6388146855633 239.52655580581333 L 317.1169345958606 233.0003107680974" stroke-miterlimit="10"/></g></g></svg>