<svg version="1.1" xmlns="http://www.w3.org/2000/svg" xmlns:xlink="http://www.w3.org/1999/xlink" width="608.14990234375" height="310"><defs/><g><text fill="#eeeeee" stroke="none" font-family="Arial" font-size="24px" font-style="normal" font-weight="normal" text-decoration="none" x="0" y="0">UNREGISTERED</text><text fill="#eeeeee" stroke="none" font-family="Arial" font-size="24px" font-style="normal" font-weight="normal" text-decoration="none" x="0" y="30">UNREGISTERED</text><text fill="#eeeeee" stroke="none" font-family="Arial" font-size="24px" font-style="normal" font-weight="normal" text-decoration="none" x="0" y="60">UNREGISTERED</text><text fill="#eeeeee" stroke="none" font-family="Arial" font-size="24px" font-style="normal" font-weight="normal" text-decoration="none" x="0" y="90">UNREGISTERED</text><text fill="#eeeeee" stroke="none" font-family="Arial" font-size="24px" font-style="normal" font-weight="normal" text-decoration="none" x="0" y="120">UNREGISTERED</text><text fill="#eeeeee" stroke="none" font-family="Arial" font-size="24px" font-style="normal" font-weight="normal" text-decoration="none" x="0" y="150">UNREGISTERED</text><text fill="#eeeeee" stroke="none" font-family="Arial" font-size="24px" font-style="normal" font-weight="normal" text-decoration="none" x="0" y="180">UNREGISTERED</text><text fill="#eeeeee" stroke="none" font-family="Arial" font-size="24px" font-style="normal" font-weight="normal" text-decoration="none" x="0" y="210">UNREGISTERED</text><text fill="#eeeeee" stroke="none" font-family="Arial" font-size="24px" font-style="normal" font-weight="normal" text-decoration="none" x="0" y="240">UNREGISTERED</text><text fill="#eeeeee" stroke="none" font-family="Arial" font-size="24px" font-style="normal" font-weight="normal" text-decoration="none" x="0" y="270">UNREGISTERED</text><text fill="#eeeeee" stroke="none" font-family="Arial" font-size="24px" font-style="normal" font-weight="normal" text-decoration="none" x="0" y="300">UNREGISTERED</text><text fill="#eeeeee" stroke="none" font-family="Arial" font-size="24px" font-style="normal" font-weight="normal" text-decoration="none" x="200" y="0">UNREGISTERED</text><text fill="#eeeeee" stroke="none" font-family="Arial" font-size="24px" font-style="normal" font-weight="normal" text-decoration="none" x="200" y="30">UNREGISTERED</text><text fill="#eeeeee" stroke="none" font-family="Arial" font-size="24px" font-style="normal" font-weight="normal" text-decoration="none" x="200" y="60">UNREGISTERED</text><text fill="#eeeeee" stroke="none" font-family="Arial" font-size="24px" font-style="normal" font-weight="normal" text-decoration="none" x="200" y="90">UNREGISTERED</text><text fill="#eeeeee" stroke="none" font-family="Arial" font-size="24px" font-style="normal" font-weight="normal" text-decoration="none" x="200" y="120">UNREGISTERED</text><text fill="#eeeeee" stroke="none" font-family="Arial" font-size="24px" font-style="normal" font-weight="normal" text-decoration="none" x="200" y="150">UNREGISTERED</text><text fill="#eeeeee" stroke="none" font-family="Arial" font-size="24px" font-style="normal" font-weight="normal" text-decoration="none" x="200" y="180">UNREGISTERED</text><text fill="#eeeeee" stroke="none" font-family="Arial" font-size="24px" font-style="normal" font-weight="normal" text-decoration="none" x="200" y="210">UNREGISTERED</text><text fill="#eeeeee" stroke="none" font-family="Arial" font-size="24px" font-style="normal" font-weight="normal" text-decoration="none" x="200" y="240">UNREGISTERED</text><text fill="#eeeeee" stroke="none" font-family="Arial" font-size="24px" font-style="normal" font-weight="normal" text-decoration="none" x="200" y="270">UNREGISTERED</text><text fill="#eeeeee" stroke="none" font-family="Arial" font-size="24px" font-style="normal" font-weight="normal" text-decoration="none" x="200" y="300">UNREGISTERED</text><text fill="#eeeeee" stroke="none" font-family="Arial" font-size="24px" font-style="normal" font-weight="normal" text-decoration="none" x="400" y="0">UNREGISTERED</text><text fill="#eeeeee" stroke="none" font-family="Arial" font-size="24px" font-style="normal" font-weight="normal" text-decoration="none" x="400" y="30">UNREGISTERED</text><text fill="#eeeeee" stroke="none" font-family="Arial" font-size="24px" font-style="normal" font-weight="normal" text-decoration="none" x="400" y="60">UNREGISTERED</text><text fill="#eeeeee" stroke="none" font-family="Arial" font-size="24px" font-style="normal" font-weight="normal" text-decoration="none" x="400" y="90">UNREGISTERED</text><text fill="#eeeeee" stroke="none" font-family="Arial" font-size="24px" font-style="normal" font-weight="normal" text-decoration="none" x="400" y="120">UNREGISTERED</text><text fill="#eeeeee" stroke="none" font-family="Arial" font-size="24px" font-style="normal" font-weight="normal" text-decoration="none" x="400" y="150">UNREGISTERED</text><text fill="#eeeeee" stroke="none" font-family="Arial" font-size="24px" font-style="normal" font-weight="normal" text-decoration="none" x="400" y="180">UNREGISTERED</text><text fill="#eeeeee" stroke="none" font-family="Arial" font-size="24px" font-style="normal" font-weight="normal" text-decoration="none" x="400" y="210">UNREGISTERED</text><text fill="#eeeeee" stroke="none" font-family="Arial" font-size="24px" font-style="normal" font-weight="normal" text-decoration="none" x="400" y="240">UNREGISTERED</text><text fill="#eeeeee" stroke="none" font-family="Arial" font-size="24px" font-style="normal" font-weight="normal" text-decoration="none" x="400" y="270">UNREGISTERED</text><text fill="#eeeeee" stroke="none" font-family="Arial" font-size="24px" font-style="normal" font-weight="normal" text-decoration="none" x="400" y="300">UNREGISTERED</text><text fill="#eeeeee" stroke="none" font-family="Arial" font-size="24px" font-style="normal" font-weight="normal" text-decoration="none" x="600" y="0">UNREGISTERED</text><text fill="#eeeeee" stroke="none" font-family="Arial" font-size="24px" font-style="normal" font-weight="normal" text-decoration="none" x="600" y="30">UNREGISTERED</text><text fill="#eeeeee" stroke="none" font-family="Arial" font-size="24px" font-style="normal" font-weight="normal" text-decoration="none" x="600" y="60">UNREGISTERED</text><text fill="#eeeeee" stroke="none" font-family="Arial" font-size="24px" font-style="normal" font-weight="normal" text-decoration="none" x="600" y="90">UNREGISTERED</text><text fill="#eeeeee" stroke="none" font-family="Arial" font-size="24px" font-style="normal" font-weight="normal" text-decoration="none" x="600" y="120">UNREGISTERED</text><text fill="#eeeeee" stroke="none" font-family="Arial" font-size="24px" font-style="normal" font-weight="normal" text-decoration="none" x="600" y="150">UNREGISTERED</text><text fill="#eeeeee" stroke="none" font-family="Arial" font-size="24px" font-style="normal" font-weight="normal" text-decoration="none" x="600" y="180">UNREGISTERED</text><text fill="#eeeeee" stroke="none" font-family="Arial" font-size="24px" font-style="normal" font-weight="normal" text-decoration="none" x="600" y="210">UNREGISTERED</text><text fill="#eeeeee" stroke="none" font-family="Arial" font-size="24px" font-style="normal" font-weight="normal" text-decoration="none" x="600" y="240">UNREGISTERED</text><text fill="#eeeeee" stroke="none" font-family="Arial" font-size="24px" font-style="normal" font-weight="normal" text-decoration="none" x="600" y="270">UNREGISTERED</text><text fill="#eeeeee" stroke="none" font-family="Arial" font-size="24px" font-style="normal" font-weight="normal" text-decoration="none" x="600" y="300">UNREGISTERED</text><g transform="translate(-117,-278) scale(1,1)"><rect fill="#C0C0C0" stroke="none" x="174" y="295" width="200.45166015625" height="72" opacity="0.2"/></g><g transform="translate(-117,-278) scale(1,1)"><rect fill="#ffffff" stroke="none" x="167" y="288" width="200.45166015625" height="72"/></g><g transform="translate(-117,-278) scale(1,1)"><path fill="none" stroke="#000000" d="M 167 288 L 367.45166015625 288 L 367.45166015625 360 L 167 360 L 167 288 Z Z" stroke-miterlimit="10"/></g><g transform="translate(-117,-278) scale(1,1)"><path fill="none" stroke="#000000" d="M 167 326 L 367.45166015625 326" stroke-miterlimit="10"/></g><g transform="translate(-117,-278) scale(1,1)"><path fill="none" stroke="#000000" d="M 167 336 L 367.45166015625 336" stroke-miterlimit="10"/></g><g transform="translate(-117,-278) scale(1,1)"><g><path fill="none" stroke="none"/><text fill="#000000" stroke="none" font-family="Arial" font-size="13px" font-style="normal" font-weight="normal" text-decoration="none" x="223.509521484375" y="305.5">«GameObject»</text></g></g><g transform="translate(-117,-278) scale(1,1)"><g><path fill="none" stroke="none"/><text fill="#000000" stroke="none" font-family="Arial" font-size="13px" font-style="normal" font-weight="bold" text-decoration="none" x="245.186767578125" y="320.5">Canvas</text></g></g><g transform="translate(-117,-278) scale(1,1)"><rect fill="#C0C0C0" stroke="none" x="134" y="485" width="118.09716796875" height="72" opacity="0.2"/></g><g transform="translate(-117,-278) scale(1,1)"><rect fill="#ffffff" stroke="none" x="127" y="478" width="118.09716796875" height="72"/></g><g transform="translate(-117,-278) scale(1,1)"><path fill="none" stroke="#000000" d="M 127 478 L 245.09716796875 478 L 245.09716796875 550 L 127 550 L 127 478 Z Z" stroke-miterlimit="10"/></g><g transform="translate(-117,-278) scale(1,1)"><path fill="none" stroke="#000000" d="M 127 531 L 245.09716796875 531" stroke-miterlimit="10"/></g><g transform="translate(-117,-278) scale(1,1)"><path fill="none" stroke="#000000" d="M 127 541 L 245.09716796875 541" stroke-miterlimit="10"/></g><g transform="translate(-117,-278) scale(1,1)"><g><path fill="none" stroke="none"/><text fill="#000000" stroke="none" font-family="Arial" font-size="13px" font-style="normal" font-weight="normal" text-decoration="none" x="162.20361328125" y="495.5">«Script»</text></g></g><g transform="translate(-117,-278) scale(1,1)"><g><path fill="none" stroke="none"/><text fill="#000000" stroke="none" font-family="Arial" font-size="13px" font-style="normal" font-weight="bold" text-decoration="none" x="133.0615234375" y="510.5">VRTK4_UICanvas</text></g></g><g transform="translate(-117,-278) scale(1,1)"><g><path fill="none" stroke="none"/><text fill="#000000" stroke="none" font-family="Arial" font-size="13px" font-style="normal" font-weight="normal" text-decoration="none" x="149.695556640625" y="525.5">(from VRTK)</text></g></g><g transform="translate(-117,-278) scale(1,1)"><rect fill="#C0C0C0" stroke="none" x="331" y="495" width="159.6689453125" height="90" opacity="0.2"/></g><g transform="translate(-117,-278) scale(1,1)"><rect fill="#ffffff" stroke="none" x="324" y="488" width="159.6689453125" height="90"/></g><g transform="translate(-117,-278) scale(1,1)"><path fill="none" stroke="#000000" d="M 324 488 L 483.6689453125 488 L 483.6689453125 578 L 324 578 L 324 488 Z Z" stroke-miterlimit="10"/></g><g transform="translate(-117,-278) scale(1,1)"><path fill="none" stroke="#000000" d="M 324 541 L 483.6689453125 541" stroke-miterlimit="10"/></g><g transform="translate(-117,-278) scale(1,1)"><path fill="none" stroke="#000000" d="M 324 551 L 483.6689453125 551" stroke-miterlimit="10"/></g><g transform="translate(-117,-278) scale(1,1)"><g><path fill="none" stroke="none"/><text fill="#000000" stroke="none" font-family="Arial" font-size="13px" font-style="normal" font-weight="normal" text-decoration="none" x="363" y="505.5">«Component»</text></g></g><g transform="translate(-117,-278) scale(1,1)"><g><path fill="none" stroke="none"/><text fill="#000000" stroke="none" font-family="Arial" font-size="13px" font-style="normal" font-weight="bold" text-decoration="none" x="361.924072265625" y="520.5">Canvas Group</text></g></g><g transform="translate(-117,-278) scale(1,1)"><g><path fill="none" stroke="none"/><text fill="#000000" stroke="none" font-family="Arial" font-size="13px" font-style="normal" font-weight="normal" text-decoration="none" x="369.890380859375" y="535.5">(from Unity)</text></g></g><g transform="translate(-117,-278) scale(1,1)"><path fill="none" stroke="#000000" d="M 373 487 L 291 361" stroke-miterlimit="10"/></g><g transform="translate(-117,-278) scale(1,1)"><path fill="#000000" stroke="none" d="M 300.0714540660895 367.2216333166483 L 291 361 L 293.015127577096 371.81384579361236 L 303.0000294984888 379.43906971719014"/></g><g transform="translate(-117,-278) scale(1,1)"><path fill="none" stroke="#000000" d="M 300.0714540660895 367.2216333166483 L 291 361 L 293.015127577096 371.81384579361236 L 303.0000294984888 379.43906971719014 L 300.0714540660895 367.2216333166483" stroke-miterlimit="10"/></g><g transform="translate(-117,-278) scale(1,1)"><path fill="none" stroke="#000000" d="M 202 477 L 251 361" stroke-miterlimit="10"/></g><g transform="translate(-117,-278) scale(1,1)"><path fill="#000000" stroke="none" d="M 250.92323176079324 371.99973211662217 L 251 361 L 243.16773148657816 368.72370182837614 L 242.43932030712892 381.26609886475603"/></g><g transform="translate(-117,-278) scale(1,1)"><path fill="none" stroke="#000000" d="M 250.92323176079324 371.99973211662217 L 251 361 L 243.16773148657816 368.72370182837614 L 242.43932030712892 381.26609886475603 L 250.92323176079324 371.99973211662217" stroke-miterlimit="10"/></g><g transform="translate(-117,-278) scale(1,1)"><rect fill="#C0C0C0" stroke="none" x="560" y="371" width="162.14990234375" height="72" opacity="0.2"/></g><g transform="translate(-117,-278) scale(1,1)"><rect fill="#ffffff" stroke="none" x="553" y="364" width="162.14990234375" height="72"/></g><g transform="translate(-117,-278) scale(1,1)"><path fill="none" stroke="#000000" d="M 553 364 L 715.14990234375 364 L 715.14990234375 436 L 553 436 L 553 364 Z Z" stroke-miterlimit="10"/></g><g transform="translate(-117,-278) scale(1,1)"><path fill="none" stroke="#000000" d="M 553 417 L 715.14990234375 417" stroke-miterlimit="10"/></g><g transform="translate(-117,-278) scale(1,1)"><path fill="none" stroke="#000000" d="M 553 427 L 715.14990234375 427" stroke-miterlimit="10"/></g><g transform="translate(-117,-278) scale(1,1)"><g><path fill="none" stroke="none"/><text fill="#000000" stroke="none" font-family="Arial" font-size="13px" font-style="normal" font-weight="normal" text-decoration="none" x="610.22998046875" y="381.5">«Script»</text></g></g><g transform="translate(-117,-278) scale(1,1)"><g><path fill="none" stroke="none"/><text fill="#000000" stroke="none" font-family="Arial" font-size="13px" font-style="normal" font-weight="bold" text-decoration="none" x="560.492919921875" y="396.5">VRTK4_UIDraggableItem</text></g></g><g transform="translate(-117,-278) scale(1,1)"><g><path fill="none" stroke="none"/><text fill="#000000" stroke="none" font-family="Arial" font-size="13px" font-style="normal" font-weight="normal" text-decoration="none" x="597.721923828125" y="411.5">(from VRTK)</text></g></g><g transform="translate(-117,-278) scale(1,1)"><path fill="none" stroke="#000000" d="M 552 383 L 368 345" stroke-miterlimit="10"/></g><g transform="translate(-117,-278) scale(1,1)"><path fill="#000000" stroke="none" d="M 378.80403480961184 342.93291707164514 L 368 345 L 377.1012546339667 351.17795792213735 L 389.5453300382919 349.4495790296472"/></g><g transform="translate(-117,-278) scale(1,1)"><path fill="none" stroke="#000000" d="M 378.80403480961184 342.93291707164514 L 368 345 L 377.1012546339667 351.17795792213735 L 389.5453300382919 349.4495790296472 L 378.80403480961184 342.93291707164514" stroke-miterlimit="10"/></g></g></svg>